<svg width="92" height="79" viewBox="0 0 92 79" fill="none" xmlns="http://www.w3.org/2000/svg">
<path d="M57.4587 64.9167C57.4587 72.4792 51.2712 78.6667 43.7087 78.6667C36.1462 78.6667 29.9587 72.4792 29.9587 64.9167H39.1253C39.1253 67.4375 41.1878 69.5 43.7087 69.5C46.2295 69.5 48.292 67.4375 48.292 64.9167C48.292 62.3958 46.2295 60.3333 43.7087 60.3333H0.166992V51.1667H43.7087C51.2712 51.1667 57.4587 57.3542 57.4587 64.9167ZM78.0837 16.7917C78.0837 7.94583 70.8878 0.75 62.042 0.75C53.1962 0.75 46.0003 7.94583 46.0003 16.7917H55.167C55.167 12.9875 58.2378 9.91667 62.042 9.91667C65.8462 9.91667 68.917 12.9875 68.917 16.7917C68.917 20.5958 65.8462 23.6667 62.042 23.6667H0.166992V32.8333H62.042C70.8878 32.8333 78.0837 25.6375 78.0837 16.7917ZM75.792 37.4167H0.166992V46.5833H75.792C79.5962 46.5833 82.667 49.6542 82.667 53.4583C82.667 57.2625 79.5962 60.3333 75.792 60.3333V69.5C84.6378 69.5 91.8337 62.3042 91.8337 53.4583C91.8337 44.6125 84.6378 37.4167 75.792 37.4167Z" fill="#E20000"/>
</svg>
