<svg width="121" height="116" viewBox="0 0 121 116" fill="none" xmlns="http://www.w3.org/2000/svg">
<path d="M77.8463 38.9566L105.246 89.6914L96.162 103.183H24.1129L14.9653 89.4218L42.3615 38.9562L77.8463 38.9566ZM85.3825 26.322H34.8441L0.231445 90.0807L17.3407 115.818H102.886L119.995 90.4094L85.3825 26.322Z" fill="#D20000"/>
<path d="M76.9594 68.4377H56.9548L64.3253 48.4331H52.7436L36.9901 80.1123H83.2371L76.9594 68.4377ZM4.31055 90.5486L25.3681 109.5H96.9645L118.022 90.5486H4.31055ZM60.1136 0C50.7157 0 43.0968 7.64567 43.0968 17.0802C43.0968 18.0805 43.2001 19.0526 43.3645 20.0051H54.1774C53.7416 19.1184 53.4762 18.135 53.4762 17.0802C53.4762 13.4011 56.4476 10.4193 60.1117 10.4193C63.7777 10.4193 66.7467 13.4015 66.7467 17.0802C66.7467 18.135 66.479 19.1184 66.0456 20.0051H76.8613C77.0252 19.0531 77.1285 18.0782 77.1285 17.0802C77.1304 7.64567 69.511 0 60.1136 0Z" fill="#D20000"/>
</svg>
