<svg width="120" height="120" viewBox="0 0 120 120" fill="none" xmlns="http://www.w3.org/2000/svg">
<path d="M41.3951 106.17C40.8884 106.17 40.4001 106.073 39.9301 105.88C31.0257 101.964 23.4533 95.5416 18.1368 87.3956C12.8202 79.2496 9.98926 69.7325 9.98926 60.0051C9.98926 50.2777 12.8202 40.7605 18.1368 32.6145C23.4533 24.4685 31.0257 18.0459 39.9301 14.1301C40.3723 13.9377 40.8481 13.8343 41.3303 13.8258C41.8125 13.8173 42.2916 13.9038 42.7403 14.0805C43.1891 14.2571 43.5986 14.5205 43.9456 14.8554C44.2926 15.1903 44.5702 15.5903 44.7626 16.0326C44.955 16.4748 45.0584 16.9506 45.0669 17.4328C45.0754 17.915 44.9888 18.3941 44.8122 18.8428C44.6355 19.2916 44.3722 19.7011 44.0372 20.0481C43.7023 20.3951 43.3023 20.6727 42.8601 20.8651C35.3166 24.2296 28.9094 29.7074 24.4131 36.6362C19.9168 43.5649 17.524 51.6478 17.524 59.9076C17.524 68.1673 19.9168 76.2502 24.4131 83.179C28.9094 90.1077 35.3166 95.5855 42.8601 98.9501C43.3055 99.1454 43.7081 99.4267 44.0447 99.7778C44.3813 100.129 44.6454 100.543 44.8219 100.996C44.9984 101.449 45.0838 101.933 45.0732 102.419C45.0625 102.906 44.9562 103.385 44.7601 103.83C44.5038 104.516 44.0443 105.108 43.4431 105.526C42.8419 105.944 42.1274 106.169 41.3951 106.17ZM78.5351 106.025C77.6761 106.069 76.8298 105.804 76.1485 105.279C75.4673 104.754 74.9959 104.003 74.8192 103.161C74.6426 102.319 74.7722 101.442 75.1849 100.688C75.5975 99.933 76.2661 99.3505 77.0701 99.0451C84.6121 95.6798 91.0179 90.2021 95.5131 83.2739C100.008 76.3457 102.401 68.2638 102.401 60.0051C102.401 51.7463 100.008 43.6644 95.5131 36.7362C91.0179 29.8081 84.6121 24.3303 77.0701 20.9651C76.2196 20.5499 75.5621 19.8226 75.2345 18.9347C74.9069 18.0468 74.9345 17.0667 75.3115 16.1987C75.6885 15.3306 76.3859 14.6414 77.2583 14.2747C78.1308 13.908 79.1111 13.892 79.9951 14.2301C88.9155 18.1312 96.505 24.5484 101.835 32.6962C107.164 40.844 110.003 50.3689 110.003 60.1051C110.003 69.8412 107.164 79.3661 101.835 87.5139C96.505 95.6618 88.9155 102.079 79.9951 105.98C79.514 106.087 79.0173 106.104 78.5301 106.03" fill="#D20000"/>
<path d="M91.1704 53.82C91.0404 54.9 90.6404 55.92 90.0004 56.8L58.2304 99.5C57.9037 99.9067 57.5304 100.265 57.1104 100.575C56.5743 100.906 55.9747 101.12 55.3504 101.205H54.6204C54.1036 101.287 53.5772 101.287 53.0604 101.205C52.0789 100.762 51.2706 100.008 50.7604 99.06C50.7365 98.8825 50.7365 98.7025 50.7604 98.525C50.5352 97.7749 50.5352 96.9751 50.7604 96.225L53.8404 72.705H34.3204C33.2011 72.6976 32.1087 72.3608 31.1795 71.7366C30.2503 71.1124 29.5255 70.2285 29.0954 69.195C29.0759 69.0155 29.0759 68.8345 29.0954 68.655C28.8575 67.6607 28.8575 66.6243 29.0954 65.63C29.2854 64.78 29.6554 63.985 30.1704 63.29L61.7954 20.49C62.2563 19.8002 62.9203 19.2707 63.6954 18.975C64.6939 18.6451 65.772 18.6451 66.7704 18.975C67.7432 19.4071 68.5488 20.1443 69.0654 21.075C69.0845 21.2695 69.0845 21.4655 69.0654 21.66C69.2807 22.3946 69.2807 23.1755 69.0654 23.91L66.0404 47.475H85.5604C86.6304 47.475 87.6804 47.78 88.5854 48.355C89.5504 49 90.3004 49.915 90.7354 50.99C91.1104 51.885 91.2604 52.855 91.1704 53.82Z" fill="#D20000"/>
</svg>
