<svg width="110" height="110" viewBox="0 0 110 110" fill="none" xmlns="http://www.w3.org/2000/svg">
<path d="M7.1166 4.16919L29.1112 27.5472L46.5136 22.5721L50.5354 21.4239L48.9104 25.2774L39.0007 48.8629L67.8503 33.8239L73.47 30.8902L70.5623 36.5234L55.1073 66.4404L74.7118 54.1674L79.6468 51.079L77.6659 56.5511L70.227 77.0953L85.4809 69.2804L90.033 66.9504L88.2805 71.7577L80.9893 91.7517L90.6839 90.3149L91.6572 90.1739L92.369 90.8518L106.186 104.058L99.6335 86.7633L104.642 76.6854L89.066 85.1786L100.036 54.8517L80.4451 65.0503L95.9878 34.3678L68.4412 52.159L90.6371 15.0525L51.354 36.2419L57.8938 14.8514L35.5834 20.2762L7.1166 4.16919ZM3.90039 6.61282L20.6316 29.8697L13.9448 46.0972L34.1669 36.0468L12.9178 71.8854L53.7918 50.4749L32.0862 90.3082L62.218 73.322L52.1332 95.2833L75.0141 83.8966L65.2054 103.722L83.7894 100.614L103.871 107.395L90.3017 94.4306L78.2436 96.2168L74.9071 96.7136L76.0617 93.5446L82.7558 75.189L67.5219 82.99L62.9835 85.3133L64.7224 80.5195L71.9133 60.6602L51.0262 73.7388L44.809 77.6258L48.1722 71.1132L64.0835 40.3167L35.9261 54.9933L30.9911 57.5714L33.146 52.4349L43.593 27.5803L29.0373 31.7429L27.8557 32.0787L27.0232 31.1856L3.90082 6.61282H3.90039Z" fill="#E20000"/>
</svg>
