<svg width="110" height="110" viewBox="0 0 110 110" fill="none" xmlns="http://www.w3.org/2000/svg">
<path d="M54.9997 11.4583C46.3879 11.4583 37.9696 14.0119 30.8092 18.7963C23.6488 23.5808 18.068 30.381 14.7724 38.3372C11.4769 46.2934 10.6146 55.0482 12.2946 63.4945C13.9747 71.9407 18.1217 79.6991 24.2111 85.7885C30.3005 91.8779 38.0589 96.0249 46.5051 97.705C54.9514 99.385 63.7062 98.5227 71.6623 95.2272C79.6185 91.9316 86.4188 86.3508 91.2033 79.1904C95.9877 72.03 98.5413 63.6116 98.5413 54.9999C98.5413 48.5558 97.1434 42.4416 94.6363 36.9462C94.2944 36.123 94.2856 35.1992 94.6117 34.3696C94.9379 33.5401 95.5736 32.8697 96.3846 32.4998C97.1956 32.13 98.1186 32.0897 98.9588 32.3873C99.799 32.685 100.491 33.2974 100.888 34.0953C103.803 40.4662 105.416 47.5474 105.416 54.9999C105.416 82.8437 82.8434 105.417 54.9997 105.417C27.1559 105.417 4.58301 82.8437 4.58301 54.9999C4.58301 27.1562 27.1559 4.58325 54.9997 4.58325C62.4522 4.58325 69.5288 6.20117 75.9043 9.11159C76.3303 9.28855 76.7163 9.54944 77.0393 9.87872C77.3624 10.208 77.6159 10.5989 77.7847 11.0282C77.9535 11.4575 78.0341 11.9164 78.0219 12.3776C78.0096 12.8387 77.9046 13.2926 77.7132 13.7123C77.5218 14.132 77.2479 14.5089 76.9078 14.8206C76.5677 15.1322 76.1683 15.3722 75.7335 15.5262C75.2987 15.6803 74.8373 15.7453 74.3769 15.7172C73.9165 15.6892 73.4664 15.5689 73.0534 15.3633C67.384 12.7854 61.2276 11.4538 54.9997 11.4583ZM96.3872 13.6124C97.0309 14.257 97.3925 15.1306 97.3925 16.0416C97.3925 16.9525 97.0309 17.8262 96.3872 18.4708L66.8476 48.0149C68.5478 50.8977 69.1383 54.3017 68.5082 57.5887C67.8781 60.8757 66.0708 63.82 63.4251 65.8698C60.7793 67.9195 57.4768 68.9339 54.1366 68.7227C50.7964 68.5116 47.6479 67.0894 45.2813 64.7228C42.9148 62.3563 41.4926 59.2078 41.2814 55.8676C41.0703 52.5274 42.0847 49.2249 44.1344 46.5791C46.1841 43.9334 49.1285 42.1261 52.4155 41.496C55.7025 40.8659 59.1065 41.4563 61.9893 43.1566L91.5288 13.6124C92.1734 12.9687 93.0471 12.6071 93.958 12.6071C94.869 12.6071 95.7426 12.9687 96.3872 13.6124ZM54.9997 48.1249C53.1763 48.1249 51.4276 48.8492 50.1383 50.1386C48.849 51.4279 48.1247 53.1766 48.1247 54.9999C48.1247 56.8233 48.849 58.572 50.1383 59.8613C51.4276 61.1506 53.1763 61.8749 54.9997 61.8749C56.823 61.8749 58.5717 61.1506 59.861 59.8613C61.1503 58.572 61.8747 56.8233 61.8747 54.9999C61.8747 53.1766 61.1503 51.4279 59.861 50.1386C58.5717 48.8492 56.823 48.1249 54.9997 48.1249Z" fill="#E20000"/>
</svg>
