<svg width="97" height="97" viewBox="0 0 97 97" fill="none" xmlns="http://www.w3.org/2000/svg">
<path d="M40.903 12.0701L31.5061 20.5557L50.7924 41.907L55.4151 37.7201C53.7858 35.9014 52.4596 34.2531 51.7018 32.2449C50.8871 30.0094 51.0198 27.4707 52.0428 24.4016L40.903 12.0701ZM83.7004 15.143L67.0475 29.9904L65.0393 22.6965L58.219 40.3156C58.219 40.3156 66.0434 38.099 69.9651 37.0002V43.1764L93.1731 28.0959L75.1561 32.7754L83.7004 15.143ZM35.4656 30.0283L4.5791 57.9158L8.76412 62.5574L39.6336 34.632L35.4656 30.0283ZM47.8559 48.3106V55.2445L57.9916 65.8539L56.7412 70.2113L67.5969 81.0481L65.1719 83.4731L62.8985 81.1996L53.7668 86.3717L52.0996 83.4162L60.3977 78.7178L55.6613 73.9815L54.411 78.3957L51.1145 77.4484L54.1647 66.8012L47.8559 60.1893V93.4004H92.9457V48.3106H66.0244L69.5862 56.7033L79.9682 57.8779L87.3379 51.266L89.6114 53.8047L86.3528 56.7412L88.7778 63.9404L85.5571 65.0393L83.5867 59.2041L81.1049 61.4397L71.1207 60.3029L74.6067 68.5063L70.2114 74.3414L67.4832 72.2953L70.7039 68.0137L65.0772 54.8088L60.4545 57.6695L58.6737 54.7899L63.7131 51.6639L63.8078 51.8344L62.3112 48.3106H47.8559Z" fill="#E20000"/>
</svg>
