<svg width="84" height="84" viewBox="0 0 84 84" fill="none" xmlns="http://www.w3.org/2000/svg">
<path d="M14.4722 6.47917C14.4722 7.99864 13.8686 9.45587 12.7942 10.5303C11.7198 11.6047 10.2625 12.2083 8.74307 12.2083C7.2236 12.2083 5.76636 11.6047 4.69193 10.5303C3.61751 9.45587 3.0139 7.99864 3.0139 6.47917C3.0139 4.9597 3.61751 3.50246 4.69193 2.42803C5.76636 1.35361 7.2236 0.75 8.74307 0.75C10.2625 0.75 11.7198 1.35361 12.7942 2.42803C13.8686 3.50246 14.4722 4.9597 14.4722 6.47917ZM19.0556 6.47917C19.0589 8.7071 18.3374 10.8757 16.9999 12.6575C23.0293 14.61 29.077 17.0392 33.0645 21.3704C33.1184 21.4296 33.1836 21.4773 33.2563 21.5108C33.329 21.5442 33.4077 21.5626 33.4877 21.565C33.5677 21.5674 33.6474 21.5536 33.7219 21.5245C33.7964 21.4954 33.8644 21.4515 33.9216 21.3956C35.8118 19.5386 37.9248 17.9229 40.2122 16.5854C40.2847 16.5433 40.3471 16.4858 40.3949 16.417C40.4428 16.3482 40.4749 16.2697 40.4891 16.1871C40.5033 16.1045 40.4992 16.0198 40.4771 15.9389C40.455 15.8581 40.4154 15.7831 40.3612 15.7192C34.9758 9.59583 27.1383 6.965 18.9547 5.02854C19.022 5.50215 19.0556 5.98569 19.0556 6.47917ZM11.5664 16.4021C10.6681 16.6542 9.72161 16.7917 8.74307 16.7917C6.69432 16.7917 4.78536 16.1958 3.18119 15.1646L0.944525 40.7442L0.756608 46.1067C0.676083 48.4039 1.46155 50.6475 2.95732 52.3928C4.45309 54.1382 6.55 55.2579 8.83244 55.53L9.24723 55.5804C11.0285 55.7922 12.8329 55.4768 14.4366 54.6731C16.0404 53.8693 17.373 52.6127 18.2695 51.059L23.302 42.3369C23.358 42.2398 23.3843 42.1285 23.3777 42.0167C23.3711 41.9048 23.3318 41.7974 23.2647 41.7076C23.1976 41.6179 23.1057 41.5498 23.0004 41.5117C22.895 41.4737 22.7807 41.4673 22.6718 41.4935L18.6064 42.479C18.5494 42.4925 18.4908 42.4986 18.4322 42.4973L12.3227 42.0985L8.35807 41.6265C8.28191 41.6175 8.20834 41.5933 8.1417 41.5554C8.07506 41.5174 8.01672 41.4665 7.97013 41.4056C7.92354 41.3447 7.88965 41.275 7.87048 41.2008C7.8513 41.1265 7.84722 41.0492 7.85848 40.9733L11.5664 16.4021Z" fill="#E20000"/>
<path fill-rule="evenodd" clip-rule="evenodd" d="M58.2751 16.7917C43.6795 16.7917 31.6276 28.1928 30.8163 42.7655L30.1036 55.6217C30.0862 55.9329 30.1324 56.2444 30.2394 56.5371C30.3465 56.8298 30.5121 57.0976 30.7262 57.3242C30.9402 57.5507 31.1983 57.7311 31.4845 57.8545C31.7707 57.9779 32.079 58.0416 32.3907 58.0417H82.0053C82.1636 58.0416 82.3202 58.0087 82.4652 57.9451C82.6102 57.8814 82.7404 57.7884 82.8476 57.6719C82.9548 57.5555 83.0368 57.418 83.0882 57.2683C83.1397 57.1185 83.1595 56.9598 83.1466 56.802L81.7945 40.5678C81.7226 39.7086 81.3305 38.9078 80.6959 38.3241C80.0614 37.7405 79.2306 37.4166 78.3684 37.4167H69.6005C69.5727 37.417 69.5458 37.4072 69.5247 37.389C69.5036 37.3709 69.4898 37.3457 69.4859 37.3182L67.1851 20.7449C67.033 19.649 66.4896 18.6451 65.6552 17.9185C64.8208 17.192 63.7517 16.7918 62.6453 16.7917H58.2751ZM59.2605 26.4511C59.2445 26.1626 59.1156 25.8919 58.9016 25.6976C58.6876 25.5034 58.4057 25.4011 58.117 25.413C48.3407 25.908 40.4849 33.1726 39.8822 43.1367L39.802 44.4636C39.7913 44.6423 39.8226 44.8211 39.8935 44.9855C39.9643 45.1499 40.0727 45.2955 40.21 45.4104C40.3472 45.5254 40.5095 45.6066 40.6838 45.6475C40.8581 45.6885 41.0396 45.688 41.2136 45.6461L54.5168 42.4332C55.367 42.1467 56.2653 41.9978 57.1705 41.9978H59.7188C59.7973 41.998 59.8749 41.982 59.9469 41.951C60.0189 41.9199 60.0838 41.8744 60.1375 41.8172C60.1912 41.7601 60.2326 41.6925 60.2591 41.6187C60.2857 41.5449 60.2968 41.4665 60.2918 41.3882L59.2605 26.4511ZM25.958 72.9376C25.958 70.2025 27.0445 67.5795 28.9785 65.6455C30.9124 63.7116 33.5355 62.6251 36.2705 62.6251H72.9372C74.2914 62.6251 75.6324 62.8918 76.8836 63.4101C78.1348 63.9283 79.2716 64.6879 80.2292 65.6455C81.1868 66.6031 81.9464 67.74 82.4647 68.9912C82.9829 70.2423 83.2497 71.5833 83.2497 72.9376C83.2497 74.2918 82.9829 75.6328 82.4647 76.884C81.9464 78.1352 81.1868 79.272 80.2292 80.2296C79.2716 81.1872 78.1348 81.9468 76.8836 82.4651C75.6324 82.9833 74.2914 83.2501 72.9372 83.2501H36.2705C33.5355 83.2501 30.9124 82.1636 28.9785 80.2296C27.0445 78.2957 25.958 75.6726 25.958 72.9376ZM44.2913 72.9376C44.2913 73.389 44.2024 73.836 44.0297 74.2531C43.8569 74.6701 43.6037 75.0491 43.2845 75.3683C42.9653 75.6875 42.5864 75.9407 42.1693 76.1134C41.7523 76.2862 41.3053 76.3751 40.8538 76.3751C40.4024 76.3751 39.9554 76.2862 39.5384 76.1134C39.1213 75.9407 38.7424 75.6875 38.4232 75.3683C38.104 75.0491 37.8508 74.6701 37.678 74.2531C37.5053 73.836 37.4163 73.389 37.4163 72.9376C37.4163 72.0259 37.7785 71.1516 38.4232 70.5069C39.0678 69.8622 39.9422 69.5001 40.8538 69.5001C41.7655 69.5001 42.6399 69.8622 43.2845 70.5069C43.9292 71.1516 44.2913 72.0259 44.2913 72.9376ZM54.6038 76.3751C55.5155 76.3751 56.3899 76.0129 57.0345 75.3683C57.6792 74.7236 58.0413 73.8493 58.0413 72.9376C58.0413 72.0259 57.6792 71.1516 57.0345 70.5069C56.3899 69.8622 55.5155 69.5001 54.6038 69.5001C53.6922 69.5001 52.8178 69.8622 52.1732 70.5069C51.5285 71.1516 51.1663 72.0259 51.1663 72.9376C51.1663 73.8493 51.5285 74.7236 52.1732 75.3683C52.8178 76.0129 53.6922 76.3751 54.6038 76.3751ZM71.7913 72.9376C71.7913 73.8493 71.4292 74.7236 70.7845 75.3683C70.1399 76.0129 69.2655 76.3751 68.3538 76.3751C67.4422 76.3751 66.5678 76.0129 65.9232 75.3683C65.2785 74.7236 64.9163 73.8493 64.9163 72.9376C64.9163 72.0259 65.2785 71.1516 65.9232 70.5069C66.5678 69.8622 67.4422 69.5001 68.3538 69.5001C69.2655 69.5001 70.1399 69.8622 70.7845 70.5069C71.4292 71.1516 71.7913 72.0259 71.7913 72.9376Z" fill="#E20000"/>
</svg>
