<svg width="120" height="120" viewBox="0 0 120 120" fill="none" xmlns="http://www.w3.org/2000/svg">
<path d="M62.9649 116.29L62.9099 116.3L62.5549 116.475L62.4549 116.495L62.3849 116.475L62.0299 116.3C61.9765 116.283 61.9365 116.292 61.9099 116.325L61.8899 116.375L61.8049 118.515L61.8299 118.615L61.8799 118.68L62.3999 119.05L62.4749 119.07L62.5349 119.05L63.0549 118.68L63.1149 118.6L63.1349 118.515L63.0499 116.38C63.0365 116.327 63.0082 116.297 62.9649 116.29ZM64.2899 115.725L64.2249 115.735L63.2999 116.2L63.2499 116.25L63.2349 116.305L63.3249 118.455L63.3499 118.515L63.3899 118.55L64.3949 119.015C64.4582 119.032 64.5065 119.018 64.5399 118.975L64.5599 118.905L64.3899 115.835C64.3732 115.775 64.3399 115.738 64.2899 115.725ZM60.7149 115.735C60.6928 115.722 60.6665 115.717 60.6414 115.723C60.6162 115.728 60.5942 115.744 60.5799 115.765L60.5499 115.835L60.3799 118.905C60.3832 118.965 60.4116 119.005 60.4649 119.025L60.5399 119.015L61.5449 118.55L61.5949 118.51L61.6149 118.455L61.6999 116.305L61.6849 116.245L61.6349 116.195L60.7149 115.735Z" fill="#D20000"/>
<path d="M56.49 10.9749C58.4631 10.2367 60.619 10.1404 62.65 10.6999L63.51 10.9749L98.51 24.0999C100.285 24.7654 101.834 25.9214 102.976 27.4334C104.119 28.9454 104.809 30.751 104.965 32.6399L105 33.4649V60.2799C105 68.382 102.812 76.3338 98.668 83.2959C94.5239 90.2579 88.577 95.972 81.455 99.8349L80.125 100.53L63.355 108.915C62.4316 109.376 61.423 109.641 60.3923 109.695C59.3616 109.748 58.331 109.588 57.365 109.225L56.645 108.915L39.875 100.53C32.6281 96.9064 26.4939 91.3934 22.12 84.573C17.7462 77.7526 15.2949 69.8778 15.025 61.7799L15 60.2799V33.4649C15 31.5706 15.5381 29.7152 16.5517 28.1148C17.5652 26.5144 19.0125 25.2348 20.725 24.4249L21.49 24.0999L56.49 10.9749ZM60 20.3399L25 33.4649V60.2799C25.0001 66.555 26.6873 72.7146 29.8848 78.1138C33.0823 83.5131 37.6726 87.9534 43.175 90.9699L44.35 91.5849L60 99.4099L75.65 91.5849C81.2636 88.7786 86.0194 84.5145 89.4193 79.2392C92.8192 73.9639 94.7381 67.8714 94.975 61.5999L95 60.2799V33.4649L60 20.3399ZM77.165 43.1449C78.0648 42.2482 79.2722 41.7275 80.5419 41.6888C81.8117 41.65 83.0486 42.096 84.0014 42.9362C84.9542 43.7763 85.5515 44.9477 85.672 46.2123C85.7925 47.4769 85.4271 48.74 84.65 49.7449L84.235 50.2149L58.065 76.3899C57.1117 77.343 55.8416 77.9129 54.4959 77.9912C53.1501 78.0696 51.8224 77.651 50.765 76.8149L50.285 76.3899L38.265 64.3699C37.3587 63.4722 36.8298 62.2621 36.7866 60.9872C36.7433 59.7123 37.189 58.4691 38.0323 57.512C38.8757 56.5549 40.0529 55.9564 41.3231 55.8389C42.5933 55.7214 43.8604 56.0938 44.865 56.8799L45.335 57.2949L54.175 66.1349L77.165 43.1449Z" fill="#D20000"/>
</svg>
