<svg width="111" height="111" viewBox="0 0 111 111" fill="none" xmlns="http://www.w3.org/2000/svg">
<path fill-rule="evenodd" clip-rule="evenodd" d="M59.0945 108.03L59.034 108.04L58.6435 108.216L58.5335 108.236L58.4565 108.216L58.066 108.04C58.0073 108.023 57.9633 108.031 57.934 108.065L57.912 108.115L57.8185 110.274L57.846 110.374L57.901 110.44L58.473 110.813L58.5555 110.833L58.6215 110.813L59.1935 110.44L59.2595 110.359L59.2815 110.274L59.188 108.12C59.1733 108.067 59.1421 108.036 59.0945 108.03ZM60.552 107.46L60.4805 107.47L59.463 107.939L59.408 107.989L59.3915 108.045L59.4905 110.213L59.518 110.274L59.562 110.309L60.6675 110.778C60.7371 110.795 60.7903 110.781 60.827 110.738L60.849 110.667L60.662 107.571C60.6436 107.51 60.607 107.473 60.552 107.46ZM56.6195 107.47C56.5952 107.456 56.5663 107.452 56.5386 107.458C56.5109 107.463 56.4867 107.479 56.471 107.5L56.438 107.571L56.251 110.667C56.2546 110.727 56.2858 110.768 56.3445 110.788L56.427 110.778L57.5325 110.309L57.5875 110.269L57.6095 110.213L57.703 108.045L57.6865 107.984L57.6315 107.934L56.6195 107.47Z" fill="#E20000"/>
<path fill-rule="evenodd" clip-rule="evenodd" d="M55.833 0.833252C86.2095 0.833252 110.833 23.4091 110.833 51.2595C110.833 79.11 86.2095 101.686 55.833 101.686C25.4565 101.686 0.833008 79.11 0.833008 51.2595C0.833008 23.4091 25.4565 0.833252 55.833 0.833252ZM35.5545 65.2831C29.8125 61.0725 22.0245 59.4437 12.9605 60.3817C14.8843 67.9585 19.1537 74.8648 25.2556 80.2705C31.3575 85.6763 39.0323 89.3514 47.3575 90.8543C46.296 77.6174 41.5495 69.6702 35.5545 65.2831ZM76.1115 65.2831C70.1165 69.6803 65.37 77.6174 64.3085 90.8492C72.632 89.3459 80.3051 85.6711 86.4059 80.2664C92.5066 74.8617 96.7757 67.9569 98.7 60.3817C89.6415 59.4437 81.8535 61.0725 76.1115 65.2831ZM55.833 41.1743C50.608 41.1743 46.307 43.0401 43.15 45.0975L40.411 46.8472C37.529 48.6374 34.218 50.4779 30.5055 51.6882C34.8423 52.8741 38.8891 54.8157 42.424 57.4065C48.606 61.9449 53.1655 68.4347 55.833 76.866C58.5005 68.4347 63.06 61.9398 69.242 57.4065C72.7774 54.8175 76.8241 52.8776 81.1605 51.6932C77.448 50.4779 74.137 48.6374 71.255 46.8472L68.516 45.0975C65.359 43.0401 61.058 41.1743 55.833 41.1743ZM55.833 10.9185C45.5811 10.9169 35.6504 14.1974 27.7556 20.1937C19.8608 26.19 14.4976 34.5256 12.592 43.7612L12.3555 45.0117L24.5105 42.7829C27.7115 42.1979 30.753 40.6499 34.152 38.5471L36.7755 36.8729C41.159 34.0188 47.6545 31.089 55.833 31.089C63.467 31.089 69.6325 33.6406 73.983 36.3031L77.514 38.5471C80.484 40.3876 83.19 41.7996 85.962 42.5207L87.1555 42.7829L99.3105 45.0117C97.6859 35.5102 92.4122 26.8534 84.4403 20.6022C76.4685 14.351 66.3229 10.9167 55.833 10.9185Z" fill="#E20000"/>
</svg>
