<svg width="92" height="92" viewBox="0 0 92 92" fill="none" xmlns="http://www.w3.org/2000/svg">
<path d="M81.1087 35.1834L79.4586 30.8751L87.9837 27.6667C83.767 17.9501 76.2503 10.1584 66.8087 5.39175L63.142 13.5501L58.9253 11.6251L62.592 3.37508C57.4587 1.35841 51.867 0.166748 46.0003 0.166748C41.142 0.166748 36.467 1.17508 32.067 2.45841L35.1837 10.8917L30.8753 12.5417L27.667 4.01675C17.9503 8.23341 10.1587 15.7501 5.39199 25.1917L13.5503 28.8584L11.6253 33.0751L3.37533 29.4084C1.35866 34.5417 0.166992 40.1334 0.166992 46.0001C0.166992 50.8584 1.17533 55.5334 2.45866 59.9334L10.892 56.8167L12.542 61.1251L4.01699 64.3334C8.23366 74.0501 15.7503 81.8417 25.192 86.6084L28.8587 78.4501L33.0753 80.3751L29.4087 88.6251C34.542 90.6417 40.1337 91.8334 46.0003 91.8334C50.8587 91.8334 55.5337 90.8251 59.9337 89.5417L56.817 81.1084L61.1253 79.4584L64.3337 87.9834C74.0503 83.7667 81.842 76.2501 86.6087 66.8084L78.4503 63.1417L80.3753 58.9251L88.6253 62.5917C90.642 57.4584 91.8337 51.8667 91.8337 46.0001C91.8337 41.1417 90.8253 36.4667 89.542 32.0667L81.1087 35.1834ZM56.542 71.3917C42.517 77.1667 26.3837 70.5667 20.6087 56.5417C14.8337 42.5167 21.4337 26.3834 35.4587 20.6084C49.4837 14.8334 65.617 21.4334 71.392 35.4584C72.7841 38.792 73.5042 42.3676 73.5109 45.9802C73.5176 49.5927 72.8107 53.171 71.431 56.5097C70.0512 59.8484 68.0257 62.8817 65.4706 65.4356C62.9156 67.9894 59.8813 70.0135 56.542 71.3917Z" fill="#E20000"/>
</svg>
