<svg width="110" height="110" viewBox="0 0 110 110" fill="none" xmlns="http://www.w3.org/2000/svg">
<path fill-rule="evenodd" clip-rule="evenodd" d="M21.0004 27.5459C24.1629 22.8938 30.7767 23.068 34.1179 27.0875C38.6188 32.5005 44.9621 37.8125 54.9996 37.8125C65.2113 37.8125 71.4583 33.55 75.7117 28.2059C79.0163 24.0488 86.0654 23.3796 89.5304 28.3113C92.3629 32.3446 95.4613 35.553 101.575 36.9142C102.444 37.1318 103.193 37.6795 103.664 38.4409C104.134 39.2024 104.29 40.1174 104.096 40.9914C103.903 41.8655 103.376 42.6296 102.628 43.1212C101.88 43.6129 100.969 43.7934 100.09 43.6242C91.6525 41.7542 87.2617 37.0425 83.9021 32.2621C83.6821 31.9459 83.2833 31.7121 82.6829 31.7259C82.379 31.7298 82.0795 31.7995 81.805 31.93C81.5305 32.0605 81.2874 32.2489 81.0925 32.4821C75.7025 39.2563 67.5579 44.6875 54.9996 44.6875C42.0608 44.6875 33.9621 37.6659 28.8288 31.4784C28.6828 31.3041 28.4995 31.165 28.2924 31.0714C28.0853 30.9778 27.8597 30.932 27.6325 30.9375C27.447 30.9305 27.2627 30.9705 27.0968 31.0538C26.9309 31.1372 26.7888 31.2612 26.6838 31.4142C23.2646 36.4421 18.8783 41.635 9.90875 43.6242C9.4631 43.7359 8.99957 43.7571 8.54558 43.6866C8.09159 43.616 7.65634 43.4552 7.26556 43.2136C6.87478 42.972 6.5364 42.6545 6.27041 42.2799C6.00442 41.9053 5.81623 41.4812 5.71695 41.0326C5.61768 40.584 5.60933 40.1201 5.69241 39.6682C5.77549 39.2163 5.94831 38.7857 6.20065 38.4018C6.45299 38.0179 6.77973 37.6884 7.16157 37.4329C7.54341 37.1774 7.97259 37.001 8.42375 36.9142C14.8954 35.475 17.9938 31.9642 21.0004 27.5459ZM21.0004 50.4625C24.1629 45.8105 30.7767 45.9846 34.1179 50.0042C38.6188 55.4171 44.9621 60.7292 54.9996 60.7292C65.2113 60.7292 71.4583 56.4667 75.7117 51.1225C79.0163 46.9655 86.0654 46.2963 89.5304 51.228C92.3629 55.2613 95.4613 58.4696 101.575 59.8309C102.444 60.0485 103.193 60.5962 103.664 61.3576C104.134 62.119 104.29 63.034 104.096 63.9081C103.903 64.7821 103.376 65.5462 102.628 66.0379C101.88 66.5296 100.969 66.71 100.09 66.5409C91.6525 64.6709 87.2617 59.9592 83.9021 55.1788C83.6821 54.8625 83.2833 54.6288 82.6829 54.6425C82.379 54.6465 82.0795 54.7161 81.805 54.8467C81.5305 54.9772 81.2874 55.1655 81.0925 55.3988C75.7025 62.1775 67.5579 67.6042 54.9996 67.6042C42.0608 67.6042 33.9621 60.578 28.8288 54.395C28.6828 54.2208 28.4995 54.0817 28.2924 53.9881C28.0853 53.8944 27.8597 53.8487 27.6325 53.8542C27.447 53.8471 27.2627 53.8872 27.0968 53.9705C26.9309 54.0538 26.7888 54.1778 26.6838 54.3309C23.2646 59.3588 18.8783 64.5517 9.90875 66.5409C9.01835 66.7378 8.08618 66.573 7.31732 66.0826C6.54846 65.5922 6.00589 64.8165 5.80896 63.9261C5.61204 63.0357 5.7769 62.1035 6.26726 61.3347C6.75763 60.5658 7.53335 60.0232 8.42375 59.8263C14.8954 58.3963 17.9938 54.8809 21.0004 50.4625ZM21.0004 73.3792C24.1629 68.7271 30.7767 68.9013 34.1179 72.9209C38.6188 78.3338 44.9621 83.6459 54.9996 83.6459C65.2113 83.6459 71.4583 79.3834 75.7117 74.0392C79.0163 69.8821 86.0654 69.213 89.5304 74.1446C92.3629 78.178 95.4613 81.3863 101.575 82.7476C102.444 82.9651 103.193 83.5129 103.664 84.2743C104.134 85.0357 104.29 85.9507 104.096 86.8248C103.903 87.6988 103.376 88.4629 102.628 88.9546C101.88 89.4462 100.969 89.6267 100.09 89.4575C91.6525 87.5875 87.2617 82.8759 83.9021 78.0955C83.6821 77.7792 83.2833 77.5455 82.6829 77.5592C82.379 77.5632 82.0795 77.6328 81.805 77.7633C81.5305 77.8939 81.2874 78.0822 81.0925 78.3155C75.7025 85.0942 67.5579 90.5209 54.9996 90.5209C42.0608 90.5209 33.9621 83.4992 28.8288 77.3117C28.6828 77.1375 28.4995 76.9984 28.2924 76.9047C28.0853 76.8111 27.8597 76.7654 27.6325 76.7709C27.447 76.7638 27.2627 76.8038 27.0968 76.8872C26.9309 76.9705 26.7888 77.0945 26.6838 77.2476C23.2646 82.2755 18.8783 87.4684 9.90875 89.4575C9.01835 89.6545 8.08618 89.4896 7.31732 88.9992C6.54846 88.5089 6.00589 87.7332 5.80896 86.8428C5.61204 85.9524 5.7769 85.0202 6.26726 84.2513C6.75763 83.4825 7.53335 82.9399 8.42375 82.743C14.8954 81.313 17.9938 77.7976 21.0004 73.3792Z" fill="#E20000"/>
</svg>
