<svg width="118" height="26" viewBox="0 0 118 26" fill="none" xmlns="http://www.w3.org/2000/svg">
<path d="M0.323875 17.128H7.87588C7.96121 17.6827 8.22788 18.1733 8.67588 18.6C9.14521 19.0053 9.77454 19.3253 10.5639 19.56C11.3532 19.7733 12.2812 19.88 13.3479 19.88C14.8199 19.88 15.9612 19.7093 16.7719 19.368C17.6039 19.0267 18.0199 18.504 18.0199 17.8C18.0199 17.3093 17.7852 16.9147 17.3159 16.616C16.8465 16.296 15.9185 16.0827 14.5319 15.976L10.3079 15.624C6.85188 15.368 4.34521 14.6213 2.78788 13.384C1.25188 12.1253 0.483875 10.44 0.483875 8.328C0.483875 6.6 0.985208 5.16 1.98788 4.008C2.99054 2.83467 4.38788 1.94933 6.17988 1.352C7.97188 0.754666 10.0839 0.455999 12.5159 0.455999C14.8625 0.455999 16.9425 0.786666 18.7559 1.448C20.5905 2.10933 22.0412 3.048 23.1079 4.264C24.1959 5.45867 24.7932 6.856 24.8999 8.456H17.3479C17.2625 7.98667 17.0172 7.58133 16.6119 7.24C16.2279 6.87733 15.6732 6.6 14.9479 6.408C14.2225 6.216 13.3585 6.12 12.3559 6.12C11.0332 6.12 9.97721 6.28 9.18788 6.6C8.41988 6.92 8.03588 7.4 8.03588 8.04C8.03588 8.50933 8.25988 8.89333 8.70788 9.192C9.17721 9.49067 10.0305 9.69333 11.2679 9.8L15.9079 10.184C18.2119 10.3547 20.0679 10.7173 21.4759 11.272C22.9052 11.8053 23.9399 12.5413 24.5799 13.48C25.2199 14.3973 25.5399 15.56 25.5399 16.968C25.5399 18.6747 25.0279 20.1787 24.0039 21.48C22.9799 22.76 21.5399 23.7627 19.6839 24.488C17.8492 25.192 15.6945 25.544 13.2199 25.544C10.6812 25.544 8.45188 25.192 6.53188 24.488C4.61188 23.784 3.10788 22.8027 2.01988 21.544C0.931875 20.264 0.366542 18.792 0.323875 17.128ZM45.3964 13.288L46.0044 11.944C47.8177 11.9867 49.3324 12.2747 50.5484 12.808C51.7644 13.32 52.671 14.0347 53.2684 14.952C53.8657 15.8693 54.1644 16.9467 54.1644 18.184C54.1644 19.4853 53.8657 20.6587 53.2684 21.704C52.6924 22.728 51.807 23.5387 50.6124 24.136C49.4177 24.712 47.935 25 46.1644 25H27.8924L29.7164 12.68L27.8924 0.999998H45.4924C47.711 0.999998 49.439 1.52267 50.6764 2.568C51.935 3.592 52.5644 5.02133 52.5644 6.856C52.5644 7.88 52.3297 8.85067 51.8604 9.768C51.4124 10.6853 50.655 11.464 49.5884 12.104C48.543 12.7227 47.1457 13.1173 45.3964 13.288ZM35.1884 23.336L32.3404 19.944H43.9564C44.7884 19.944 45.439 19.7413 45.9084 19.336C46.3777 18.9093 46.6124 18.3227 46.6124 17.576C46.6124 16.872 46.367 16.296 45.8764 15.848C45.3857 15.3787 44.671 15.144 43.7324 15.144H34.0684V10.216H42.6764C43.3377 10.216 43.8924 10.0133 44.3404 9.608C44.7884 9.20267 45.0124 8.66933 45.0124 8.008C45.0124 7.45333 44.8097 6.99467 44.4044 6.632C44.0204 6.248 43.4657 6.056 42.7404 6.056H32.3724L35.1884 2.664L36.8204 12.68L35.1884 23.336ZM57.1894 0.999998H64.6454V25H57.1894V0.999998ZM82.5111 0.999998C84.6018 0.999998 86.3938 1.352 87.8871 2.056C89.4018 2.76 90.5538 3.752 91.3431 5.032C92.1325 6.29067 92.5271 7.784 92.5271 9.512C92.5271 11.2187 92.1325 12.712 91.3431 13.992C90.5538 15.272 89.4018 16.264 87.8871 16.968C86.3938 17.672 84.6018 18.024 82.5111 18.024H72.2391V12.136H82.0311C82.9698 12.136 83.6951 11.9013 84.2071 11.432C84.7405 10.9627 85.0071 10.3227 85.0071 9.512C85.0071 8.65867 84.7405 8.008 84.2071 7.56C83.6951 7.112 82.9698 6.888 82.0311 6.888H72.8791L76.2391 3.496V25H68.7831V0.999998H82.5111ZM102.645 0.999998V21.704L99.2854 18.376H117.173V25H95.1894V0.999998H102.645Z" fill="#E20004"/>
</svg>
