<svg width="140" height="143" viewBox="0 0 140 143" fill="none" xmlns="http://www.w3.org/2000/svg">
<g clip-path="url(#clip0_69_72)">
<path d="M54.9792 34.3333L31.8325 109H65.6367L71.1667 91.5583L76.6908 109H110.495L87.3483 34.3333H54.9792ZM59.8558 39H83.9125L104.166 104.333H80.1092L73.3892 83.1467L59.8558 39ZM56.6883 44.5825L68.7225 83.8292L62.23 104.333H38.1675L56.6883 44.5825ZM70 4C31.3425 4 0 35.3425 0 74C0 112.658 31.3425 144 70 144C108.658 144 140 112.658 140 74C140 35.3425 108.658 4 70 4ZM70 8.66667C106.085 8.66667 135.333 37.9092 135.333 74C135.333 110.091 106.085 139.333 70 139.333C33.915 139.333 4.66667 110.085 4.66667 74C4.66667 37.915 33.915 8.66667 70 8.66667Z" fill="black"/>
</g>
<defs>
<clipPath id="clip0_69_72">
<rect width="140" height="142.598" fill="white" transform="translate(0 0.140137)"/>
</clipPath>
</defs>
</svg>
