<svg width="181" height="186" viewBox="0 0 181 186" fill="none" xmlns="http://www.w3.org/2000/svg">
<path d="M86.5482 76.0046C85.2451 75.9644 83.9681 76.3756 82.9333 77.1685C81.8985 77.9614 81.1694 79.0875 80.8693 80.3562C80.5173 81.6835 80.6456 82.7419 81.2539 83.5312C81.8723 84.3105 82.8804 84.7002 84.2781 84.7002C85.2348 84.7134 86.1809 84.4988 87.0384 84.0742L87.4758 82.3396C87.0491 82.584 86.5994 82.7861 86.1334 82.943C85.7173 83.067 85.2855 83.1305 84.8513 83.1315C84.0871 83.1315 83.5466 82.8877 83.2298 82.4C82.9181 81.8972 82.8754 81.2134 83.1016 80.3486C83.2708 79.5599 83.6884 78.8462 84.2932 78.3124C84.8543 77.8287 85.5737 77.5683 86.3144 77.5809C86.7417 77.5758 87.1339 77.6337 87.4909 77.7543C87.8652 77.8992 88.214 78.1028 88.5241 78.3576L88.969 76.6381C88.6176 76.4298 88.2396 76.2699 87.8453 76.163C87.4212 76.0567 86.9854 76.0035 86.5482 76.0046ZM52.852 76.163L47.5578 84.5343H49.7448L50.6649 83.0184H54.0436L54.1793 84.5343H56.3438L55.4312 76.163H52.852ZM61.8266 76.163L59.632 84.5343H61.7964L62.5506 81.6307H63.9835C64.9154 81.6721 65.8373 81.4245 66.6231 80.9218C67.3216 80.4395 67.814 79.713 68.0032 78.8856C68.2345 78.0107 68.1264 77.3395 67.6789 76.8719C67.2264 76.3993 66.4722 76.163 65.4164 76.163H61.8266ZM73.4709 76.163L68.1842 84.5343H70.3637L71.2914 83.0184H74.67L74.7983 84.5343H76.9703L76.0502 76.163H73.4709ZM93.0642 76.163L90.8771 84.5343H93.034L93.9616 80.9821H97.1517L96.2317 84.5343H98.3886L100.583 76.163H98.4187L97.5741 79.3456H94.3915L95.2286 76.163H93.0642ZM104.859 76.163L102.672 84.5343H108.63L109.06 82.8977H105.274L105.772 80.9821H109.218L109.648 79.3456H106.179L106.601 77.7845H110.267L110.697 76.163H104.859ZM63.5838 77.7241H64.7754C65.1927 77.7191 65.4868 77.8197 65.6578 78.0258C65.8388 78.2269 65.879 78.516 65.7784 78.8931C65.6962 79.241 65.493 79.5484 65.2052 79.7604C64.8953 79.9726 64.5247 80.0785 64.1494 80.0621H62.9729L63.5838 77.7241ZM53.6288 78.1239L53.9078 81.4573H51.6076L53.6288 78.1239ZM74.2552 78.1239L74.5343 81.4573H72.2341L74.2552 78.1239ZM87.4607 88.3202C80.1905 88.3202 73.0561 94.2178 71.5478 101.48C70.0244 108.751 74.6776 114.648 81.9553 114.648C88.1998 114.648 94.3463 110.274 96.9104 104.429H90.4849C88.8559 106.843 86.073 108.532 83.2298 108.532C79.3383 108.532 76.842 105.379 77.6565 101.48C78.471 97.5889 82.2871 94.4214 86.1786 94.4214C89.1953 94.4214 91.3824 96.3219 91.8273 98.9917H98.1548C98.2604 92.9131 93.8862 88.3202 87.4607 88.3202ZM104.196 88.7199L98.8562 114.248H118.57L119.671 108.939H106.187L107.129 104.444H120.41L121.534 99.0897H108.246L109.309 94.0142H122.801L123.902 88.7199H104.196ZM129.46 88.7199L124.106 114.248H130.169L133.789 97.0157L140.35 114.248H148.05L153.39 88.7199H147.326L143.789 105.651L137.907 88.7199H129.46ZM159.099 88.7199L153.76 114.248H172.727L173.835 108.939H161.098L162.025 104.444H174.778L175.902 99.0897H163.149L164.205 94.0142H176.958L178.066 88.7199H159.099ZM0 89.0291L3.67279 94.4817H18.4771L18.5978 93.9387L19.6159 89.0366L0 89.0291ZM25.8604 89.0291L24.8422 93.9312L23.7638 99.0595L20.6265 114.052L20.5963 114.248H38.4172L38.4474 114.052L39.4806 109.15L39.541 108.894H27.9343L32.0898 89.0291H30.4005H25.8604ZM46.2983 89.0291L43.5908 102.046C43.254 103.67 43.0881 105.133 43.0931 106.435H43.1082L43.078 106.511C43.078 106.993 43.1031 107.456 43.1534 107.898C43.3394 109.537 43.8397 110.877 44.6542 111.918C45.5088 112.996 46.6555 113.805 47.9575 114.248C49.3401 114.751 50.9741 115.003 52.8595 115.003C54.7299 114.998 56.4619 114.751 58.0557 114.264C59.6445 113.771 61.0649 113.004 62.3168 111.963C63.6304 110.852 64.7207 109.5 65.5295 107.981C66.4195 106.372 67.1007 104.437 67.5733 102.174L70.3185 89.0291H64.0966L61.359 102.174C60.8261 104.703 59.9889 106.581 58.8476 107.808C57.7214 109.035 56.115 109.648 54.0285 109.648C51.942 109.648 50.582 109.035 49.9485 107.808C49.315 106.581 49.2597 104.703 49.7825 102.174L52.5428 89.0291H46.2983ZM6.67437 99.7383L14.9627 112.076L17.5268 99.8439L17.5419 99.7458L6.67437 99.7383ZM175.321 111.624V112.107H176.166V114.158H176.829V112.107H177.667V111.624H175.321ZM178.187 111.624V114.158H178.805V112.303L179.379 113.675H179.808L180.382 112.303V114.158H181V111.624H180.17L179.582 112.981L179.009 111.624H178.187Z" fill="black"/>
</svg>
