<svg width="140" height="143" viewBox="0 0 140 143" fill="none" xmlns="http://www.w3.org/2000/svg">
<g clip-path="url(#clip0_69_83)">
<path d="M121.263 26.3531C120.674 25.7406 120.114 25.1106 119.507 24.504C118.905 23.909 118.282 23.3217 117.641 22.7423C104.728 10.6532 87.6881 3.94936 69.9999 3.99979C60.8037 3.97633 51.694 5.7758 43.1973 9.2942C34.7007 12.8126 26.9857 17.9801 20.4982 24.4981C-6.19508 51.1915 -6.76675 94.2415 18.7424 121.646C19.3141 122.276 19.8974 122.899 20.4924 123.513C21.0991 124.114 21.7174 124.68 22.3416 125.263C35.2657 137.344 52.3087 144.044 69.9999 144C88.7016 144 106.283 136.726 119.507 123.513C146.201 96.8198 146.767 53.7698 121.263 26.3531ZM24.1091 28.109C30.1227 22.0651 37.2747 17.2731 45.1516 14.01C53.0284 10.7469 61.4739 9.07746 69.9999 9.09813C86.4791 9.09813 102.025 15.2115 114.042 26.3531L108.202 32.1981C97.7836 22.6311 84.1448 17.3373 69.9999 17.3698C62.5593 17.3482 55.1884 18.8034 48.3143 21.6512C41.4402 24.499 35.1996 28.6827 29.9541 33.9598C24.6787 39.2051 20.4965 45.4449 17.6498 52.318C14.803 59.191 13.3483 66.5606 13.3699 73.9998C13.3699 88.2798 18.6199 101.726 28.1983 112.202L22.3474 118.041C-1.17258 92.614 -0.58925 52.8073 24.1091 28.109ZM104.597 35.7973V35.809L98.6766 41.724C90.7974 34.6581 80.5833 30.7562 69.9999 30.769C64.3215 30.754 58.6966 31.8656 53.4508 34.0394C48.205 36.2132 43.4425 39.4061 39.4391 43.4331C35.4103 47.4367 32.216 52.2 30.0411 57.4468C27.8663 62.6937 26.7541 68.32 26.7691 73.9998C26.7535 84.5774 30.6538 94.7863 37.7182 102.659L31.8033 108.586C23.1932 99.1285 18.4377 86.7892 18.4741 73.9998C18.4553 67.2308 19.78 60.5255 22.3714 54.2722C24.9628 48.0189 28.7695 42.3421 33.5708 37.5706C38.3422 32.7693 44.019 28.9627 50.2723 26.3713C56.5256 23.7798 63.231 22.4551 69.9999 22.474C82.9091 22.474 95.0891 27.1931 104.597 35.7973ZM108.132 73.9998C108.132 84.179 104.16 93.7573 96.9558 100.961C89.7516 108.166 80.1849 112.138 69.9999 112.138C60.7744 112.14 51.8647 108.778 44.9399 102.682L44.9341 102.659C44.2924 102.111 43.6508 101.562 43.0441 100.961C42.4514 100.349 41.8813 99.7143 41.3349 99.0598C35.2273 92.1426 31.8655 83.2275 31.8849 73.9998C31.8849 63.8148 35.8458 54.2423 43.0499 47.044C46.5824 43.4958 50.7827 40.6823 55.4082 38.766C60.0338 36.8497 64.9931 35.8685 69.9999 35.879C79.3274 35.879 88.1124 39.239 95.0541 45.329C95.7016 45.889 96.3608 46.4373 96.9558 47.0498C97.5546 47.6604 98.1283 48.2904 98.6766 48.9398C104.782 55.859 108.145 64.7723 108.132 73.9998ZM41.3232 106.281C49.2001 113.348 59.4178 117.252 69.9999 117.242C75.68 117.258 81.3066 116.145 86.553 113.968C91.7993 111.791 96.5607 108.593 100.561 104.561C104.592 100.56 107.789 95.7985 109.965 90.5522C112.141 85.3058 113.253 79.6795 113.237 73.9998C113.247 63.419 109.35 53.207 102.293 45.3231L108.202 39.4198C116.806 48.8785 121.561 61.2134 121.532 73.9998C121.55 80.7701 120.225 87.4769 117.633 93.7312C115.04 99.9856 111.232 105.663 106.429 110.435C101.66 115.239 95.9831 119.047 89.7294 121.639C83.4757 124.23 76.7693 125.553 69.9999 125.531C57.2095 125.564 44.8699 120.809 35.4083 112.202L41.3232 106.281ZM115.891 119.891C109.879 125.936 102.727 130.729 94.8494 133.991C86.9722 137.253 78.526 138.92 69.9999 138.896C53.6609 138.942 37.9151 132.776 25.9524 121.646L31.8091 115.807C42.2249 125.379 55.8656 130.674 70.0116 130.636C77.453 130.656 84.8244 129.199 91.6986 126.349C98.5727 123.499 104.813 119.313 110.057 114.034C115.332 108.789 119.514 102.55 122.361 95.6785C125.207 88.8065 126.662 81.438 126.642 73.9998C126.677 59.855 121.38 46.2165 111.807 35.8031L117.647 29.9581C141.161 55.3856 140.601 95.1865 115.891 119.891Z" fill="black"/>
</g>
<defs>
<clipPath id="clip0_69_83">
<rect width="140" height="142.598" fill="white" transform="translate(0 0.140137)"/>
</clipPath>
</defs>
</svg>
