<svg width="96" height="77" viewBox="0 0 96 77" fill="none" xmlns="http://www.w3.org/2000/svg">
<path d="M8.43774 52.2496C8.83997 52.3506 9.38618 52.8724 9.54388 53.3485L10.3438 55.3781C10.5243 55.7676 10.49 56.5395 10.2752 56.9099L7.08249 62.4022C6.39915 63.5805 6.54085 65.2493 7.45958 66.3314L10.1632 69.1738C11.1048 70.0539 12.7663 70.2126 13.8496 69.5225L19.0695 66.1631C19.3963 65.9515 20.0979 65.877 20.5893 66.1198L22.5159 66.9567C22.9044 67.0985 23.4003 67.6709 23.4963 68.0941L24.9293 74.3559C25.2332 75.6833 26.4376 76.775 27.7312 76.9001C27.7312 76.9001 28.5242 76.977 29.7126 76.977C30.901 76.977 31.6941 76.9001 31.6964 76.9001C32.3516 76.8201 32.9689 76.5347 33.4681 76.0811C33.9673 75.6274 34.3254 75.0264 34.496 74.3559L35.9312 68.0941C36.0272 67.6733 36.5209 67.0985 36.9734 66.9326L38.9023 66.091C39.2428 65.9154 40.0313 65.9515 40.3581 66.1631L45.578 69.5225C46.0373 69.8183 46.5858 69.9746 47.1686 69.9746C47.9571 69.9746 48.7204 69.6836 49.3123 69.1281L52.0137 66.2834C52.441 65.751 52.7021 65.0931 52.7614 64.399C52.8207 63.705 52.6753 63.0086 52.3451 62.4046L49.1523 56.9123C48.9375 56.5419 48.9032 55.77 49.1112 55.3131L49.9065 53.286C50.0414 52.8772 50.5853 52.3554 50.9875 52.2544L56.9387 50.7466C57.5748 50.564 58.1446 50.186 58.5753 49.6608C59.006 49.1356 59.2781 48.4872 59.3567 47.7985C59.3567 47.7985 59.4298 46.964 59.4298 45.7136C59.4298 44.4632 59.3567 43.6287 59.3567 43.6263C59.2781 42.9376 59.006 42.2892 58.5753 41.764C58.1446 41.2388 57.5748 40.8608 56.9387 40.6782L50.9898 39.1728C50.5876 39.0718 50.0414 38.55 49.8837 38.0739L49.0838 36.0443C48.9032 35.6548 48.9375 34.8829 49.1523 34.5125L52.3451 29.0202C53.0284 27.8419 52.8867 26.173 51.968 25.0909L49.2643 22.2486C48.3204 21.3661 46.6567 21.2074 45.578 21.8999L40.3581 25.2593C40.0313 25.4685 39.3274 25.5478 38.8383 25.3025L36.9117 24.4657C36.5232 24.3238 36.0295 23.7515 35.9335 23.3283L34.4983 17.0665C34.3247 16.3972 33.9654 15.7977 33.4663 15.3445C32.9672 14.8913 32.3509 14.605 31.6964 14.5223C31.6918 14.5247 30.8988 14.4478 29.7103 14.4478C28.5219 14.4478 27.7289 14.5247 27.7266 14.5247C27.072 14.6074 26.4558 14.8937 25.9566 15.3469C25.4575 15.8001 25.0982 16.3996 24.9247 17.0689L23.494 23.3259C23.398 23.7491 22.9021 24.3238 22.4496 24.4898L20.5207 25.3314C20.1779 25.5069 19.3917 25.4685 19.0649 25.2593L13.8473 21.8999C12.7663 21.2074 11.1391 21.3276 10.1129 22.2943L7.41159 25.139C6.98424 25.6714 6.72315 26.3293 6.66386 27.0234C6.60456 27.7174 6.74994 28.4138 7.0802 29.0178L10.2729 34.5101C10.4878 34.8804 10.522 35.6524 10.3141 36.1092L9.51874 38.1364C9.3839 38.5452 8.83997 39.067 8.43774 39.168L2.48653 40.6758C1.85049 40.8583 1.28068 41.2364 0.84995 41.7616C0.419223 42.2868 0.147162 42.9352 0.0685623 43.6239C0.0731332 43.6239 0 44.4583 0 45.7088C0 46.9592 0.0731332 47.7937 0.0731332 47.7961C0.151733 48.4848 0.423793 49.1332 0.854521 49.6584C1.28525 50.1836 1.85507 50.5616 2.4911 50.7442L8.43774 52.2496ZM2.28541 45.7088C2.28541 44.6074 2.34712 43.8644 2.3494 43.8403C2.38662 43.6536 2.46818 43.4798 2.58647 43.3351C2.70476 43.1905 2.85593 43.0797 3.02588 43.0131L8.97709 41.5054C10.1312 41.212 11.2945 40.101 11.6556 38.9877L12.3961 37.0952C12.9171 35.9722 12.844 34.3226 12.2247 33.2549L9.03194 27.765C8.87882 27.498 8.92225 26.969 9.07308 26.7886L11.6807 24.0425C11.8887 23.8477 12.4189 23.7996 12.6566 23.9511L17.8765 27.3105C18.8661 27.9477 20.5618 27.991 21.46 27.5221L23.2609 26.7381C24.3831 26.3318 25.4389 25.1078 25.7177 23.891L27.1484 17.6316C27.2114 17.4523 27.3165 17.2927 27.454 17.1678C27.5915 17.0429 27.7568 16.9568 27.9346 16.9174C27.9574 16.9174 28.6636 16.8524 29.7103 16.8524C30.7571 16.8524 31.4633 16.9174 31.4861 16.9198C31.6636 16.9589 31.8288 17.0448 31.9663 17.1692C32.1037 17.2937 32.209 17.4527 32.2723 17.6316L33.7052 23.891C33.9841 25.1054 35.0376 26.3318 36.0981 26.7117L37.8967 27.4908C38.9411 28.0295 40.5592 27.9453 41.5465 27.3105L46.7641 23.9511C47.0018 23.7996 47.564 23.879 47.692 23.9944L50.3019 26.7381C50.4984 26.9714 50.5419 27.498 50.3887 27.765L47.196 33.2573C46.5767 34.3226 46.5035 35.9746 46.9949 37.0278L47.74 38.9227C48.1262 40.1034 49.2895 41.2144 50.4459 41.5078L56.3948 43.0131C56.5652 43.0794 56.7168 43.19 56.8355 43.3347C56.9542 43.4793 57.0361 43.6533 57.0736 43.8403C57.0736 43.8644 57.1353 44.6074 57.1353 45.7088C57.1353 46.8101 57.0736 47.5532 57.0713 47.5772C57.0341 47.764 56.9525 47.9378 56.8342 48.0824C56.7159 48.2271 56.5648 48.3379 56.3948 48.4044L50.4436 49.9122C49.2895 50.2056 48.1262 51.3165 47.7651 52.4299L47.0246 54.3224C46.5035 55.4454 46.5767 57.095 47.196 58.1627L50.3887 63.6526C50.5419 63.9195 50.4984 64.4486 50.3476 64.6289L47.74 67.3751C47.5746 67.5047 47.3724 67.5716 47.1663 67.5651C47.0271 67.5694 46.8893 67.5354 46.7664 67.4665L41.5465 64.1071C40.5592 63.4723 38.8634 63.4266 37.963 63.8955L36.1621 64.6794C35.0399 65.0858 33.9841 66.3122 33.7075 67.5266L32.2746 73.786C32.2116 73.9653 32.1065 74.1248 31.969 74.2497C31.8315 74.3746 31.6661 74.4608 31.4884 74.5002C31.4633 74.5002 30.7571 74.5651 29.7103 74.5651C28.6636 74.5651 27.9574 74.5002 27.9346 74.4978C27.7571 74.4586 27.5919 74.3728 27.4544 74.2484C27.317 74.1239 27.2117 73.9648 27.1484 73.786L25.7154 67.5242C25.4366 66.3098 24.3808 65.0858 23.3226 64.7059L21.524 63.9268C21.0134 63.6739 20.4541 63.5488 19.8899 63.5612C19.138 63.5612 18.4227 63.756 17.8742 64.1095L12.6566 67.4689C12.4189 67.6204 11.8544 67.5386 11.7287 67.4256L9.11879 64.6794C8.92225 64.4462 8.87882 63.9195 9.03194 63.6526L12.2247 58.1603C12.844 57.095 12.9171 55.443 12.4258 54.3897L11.6807 52.4948C11.2945 51.3141 10.1312 50.2032 8.97481 49.9098L3.02588 48.4044C2.8555 48.3382 2.70387 48.2276 2.58516 48.0829C2.46645 47.9382 2.38455 47.7643 2.34712 47.5772C2.34712 47.5532 2.28541 46.8101 2.28541 45.7088Z" fill="#D20000"/>
<path d="M29.7099 58.9343C36.6416 58.9343 42.2797 53.0019 42.2797 45.7084C42.2797 38.415 36.6416 32.4826 29.7099 32.4826C22.7782 32.4826 17.1401 38.415 17.1401 45.7084C17.1401 53.0019 22.7782 58.9343 29.7099 58.9343ZM29.7099 34.8873C35.38 34.8873 39.9942 39.7424 39.9942 45.7084C39.9942 51.6745 35.38 56.5296 29.7099 56.5296C24.0398 56.5296 19.4255 51.6745 19.4255 45.7084C19.4255 39.7424 24.0398 34.8873 29.7099 34.8873ZM62.7958 12.7978C62.6428 12.9797 62.4327 13.0975 62.2039 13.1296L57.9507 13.0864C57.4258 13.101 56.9169 13.2793 56.4885 13.5987C56.0601 13.9181 55.7314 14.3641 55.5442 14.8803C55.5442 14.8803 55.3568 15.4405 55.1511 16.299C54.9454 17.1575 54.8586 17.7442 54.8586 17.7442C54.6986 18.8288 55.2722 20.0287 56.1932 20.5361L59.9436 22.6041C60.1438 22.7652 60.2792 22.9995 60.323 23.2606L60.5355 24.7876C60.5482 25.0287 60.4803 25.267 60.3435 25.4609L57.3222 28.5774C56.5658 29.3565 56.3669 30.6887 56.888 31.7348L58.257 34.1395C58.8352 35.034 60.0876 35.4909 61.0703 35.1687L65.2389 33.8268C65.4652 33.8268 65.6914 33.9182 65.8194 34.0264L66.9964 34.9402C67.1677 35.1025 67.2793 35.3229 67.3118 35.563L67.2706 40.0165C67.2615 41.1131 67.9928 42.212 68.9755 42.5727C68.9755 42.5727 69.508 42.7699 70.3239 42.9863C71.1398 43.2028 71.6975 43.2941 71.6975 43.2941C71.7569 43.3037 71.9946 43.323 72.054 43.323C72.5226 43.3168 72.9815 43.1812 73.3846 42.9297C73.7877 42.6781 74.1209 42.3195 74.3508 41.8898L76.3163 37.9437C76.4694 37.7331 76.692 37.5906 76.9402 37.5445L78.4554 37.3137C78.684 37.3137 78.9537 37.4387 79.0291 37.5205L81.991 40.6995C82.7109 41.4738 83.9244 41.7503 84.9917 41.1564L87.2748 39.7159C88.1479 39.0907 88.5707 37.8162 88.2553 36.7558L86.9937 32.5067C86.9593 32.2425 87.0232 31.9746 87.172 31.7588L88.0404 30.5204C88.1934 30.3385 88.4036 30.2207 88.6324 30.1885L92.8855 30.2318C93.4104 30.2172 93.9193 30.0389 94.3478 29.7195C94.7762 29.4001 95.1048 28.9541 95.2921 28.4379C95.2921 28.4379 95.4795 27.8776 95.6851 27.0192C95.8908 26.1607 95.9777 25.5739 95.9777 25.5739C96.0455 25.0216 95.9547 24.4604 95.7168 23.9629C95.4789 23.4653 95.1049 23.0541 94.643 22.7821L90.8926 20.714C90.6925 20.553 90.5571 20.3187 90.5133 20.0576L90.303 18.5354C90.2903 18.2942 90.3582 18.056 90.495 17.8621L93.5163 14.7456C94.2728 13.9665 94.4716 12.6343 93.9505 11.5882L92.5816 9.18353C92.0033 8.29139 90.7532 7.82969 89.7682 8.15192L85.5973 9.49374C85.3886 9.49376 85.1853 9.42385 85.0168 9.29415L83.8399 8.38036C83.6686 8.21809 83.5569 7.99764 83.5245 7.75755L83.5656 3.30405C83.5562 2.74764 83.3888 2.20691 83.085 1.75139C82.7812 1.29587 82.3548 0.946385 81.8607 0.74786C81.8607 0.74786 81.3282 0.550675 80.5123 0.334253C79.6964 0.11783 79.1388 0.0264516 79.1388 0.0264516C79.0202 0.0143762 78.9013 0.00555594 78.7822 0C78.3136 0.00614208 77.8547 0.14178 77.4516 0.39332C77.0485 0.64486 76.7153 1.00347 76.4854 1.4332L74.52 5.3793C74.3669 5.58992 74.1442 5.73238 73.896 5.77848L72.3808 6.00693C72.1739 6.00174 71.9736 5.92952 71.8072 5.80012L68.8453 2.62112C68.4585 2.21515 67.9576 1.95139 67.4169 1.86907C66.8763 1.78675 66.3248 1.89027 65.8445 2.16423L63.5591 3.60223C62.6861 4.22745 62.2633 5.50194 62.5787 6.56241L63.8402 10.8115C63.8747 11.0757 63.8108 11.3436 63.662 11.5594L62.7958 12.7978ZM64.6698 14.1733L65.4537 13.0527C66.0662 12.2904 66.3039 11.0472 66.0205 10.0973L64.7612 5.85062C64.7498 5.78329 64.8001 5.6318 64.7887 5.62939L66.9552 4.26352L67.2135 4.3044L70.1777 7.48341C70.7033 8.04611 71.5695 8.41162 72.3831 8.41162C72.5396 8.41323 72.6958 8.39792 72.8493 8.36593L74.1634 8.16153C74.6566 8.09726 75.1288 7.91298 75.5426 7.6233C75.9563 7.33363 76.3003 6.94652 76.5471 6.49268L78.5103 2.54898C78.5828 2.46821 78.6798 2.41637 78.7845 2.40229C78.8097 2.4047 79.2759 2.48645 79.9569 2.6644C80.6357 2.84475 81.0837 3.00587 81.1042 3.01549C81.1751 3.04675 81.2779 3.20305 81.2825 3.28L81.2413 7.7335C81.2322 8.72904 81.8013 9.84723 82.5372 10.3522L83.5999 11.177C84.3061 11.8046 85.5173 12.0692 86.4087 11.7734L90.463 10.446C90.559 10.446 90.6664 10.5085 90.6527 10.4773L91.9508 12.7569C91.9759 12.8194 91.9508 12.9781 91.9119 13.0286L88.8906 16.1475C88.2164 16.8473 87.8668 18.0593 88.0519 18.9586L88.2438 20.3413C88.3261 21.3321 88.9935 22.3877 89.8322 22.8494L93.5803 24.915C93.657 24.9914 93.7063 25.0934 93.7197 25.2036C93.6538 25.6184 93.5707 26.03 93.4706 26.4372C93.3761 26.8445 93.2647 27.2473 93.1369 27.6444C93.1072 27.7189 92.9587 27.8271 92.8855 27.8319L88.6301 27.7887C87.6908 27.7887 86.6395 28.3874 86.1641 29.1521L85.3825 30.2703C85.0746 30.6818 84.8629 31.1636 84.7645 31.6769C84.666 32.1903 84.6836 32.7208 84.8157 33.2257L86.075 37.4724C86.0864 37.5373 86.0361 37.6912 86.0476 37.6936L83.881 39.0595L83.6227 39.0186L80.6586 35.8396C80.1329 35.2769 79.2668 34.9114 78.4531 34.9114C78.2967 34.9098 78.1404 34.9251 77.9869 34.9571L76.6728 35.1615C76.1796 35.2257 75.7074 35.41 75.2937 35.6997C74.8799 35.9894 74.536 36.3765 74.2891 36.8303L72.326 40.774C72.2534 40.8548 72.1565 40.9066 72.0517 40.9207C71.6575 40.8513 71.2663 40.7639 70.8793 40.6586C70.4922 40.5591 70.1094 40.442 69.732 40.3075C69.6612 40.2762 69.5583 40.1199 69.5538 40.043L69.5949 35.5895C69.604 34.5939 69.035 33.4758 68.2991 32.9708L67.2363 32.146C66.845 31.8216 66.3867 31.5986 65.8984 31.495C65.4101 31.3915 64.9055 31.4101 64.4253 31.5496L60.371 32.877C60.2727 32.877 60.1653 32.8217 60.1813 32.8457L58.8832 30.5661C58.858 30.5036 58.8832 30.3448 58.922 30.2943L61.9433 27.1755C62.6175 26.4757 62.9672 25.2637 62.7821 24.3644L62.5901 22.9841C62.5288 22.4649 62.3533 21.9679 62.0776 21.5326C61.8019 21.0972 61.4335 20.7354 61.0017 20.476L57.2537 18.4103C57.1769 18.334 57.1276 18.232 57.1143 18.1218C57.1165 18.0953 57.1943 17.6048 57.3634 16.8882C57.5348 16.174 57.6879 15.7027 57.697 15.681C57.7268 15.6065 57.8753 15.4983 57.9484 15.4935L62.2039 15.5367C63.1432 15.5367 64.1945 14.938 64.6698 14.1733Z" fill="#D20000"/>
<path d="M75.4187 28.8759C79.1988 28.8759 82.275 25.6392 82.275 21.6618C82.275 17.6845 79.1988 14.4478 75.4187 14.4478C71.6387 14.4478 68.5625 17.6845 68.5625 21.6618C68.5625 25.6392 71.6387 28.8759 75.4187 28.8759ZM75.4187 16.8524C77.9395 16.8524 79.9896 19.0095 79.9896 21.6618C79.9896 24.3142 77.9395 26.4712 75.4187 26.4712C72.8979 26.4712 70.8479 24.3142 70.8479 21.6618C70.8479 19.0095 72.8979 16.8524 75.4187 16.8524Z" fill="#D20000"/>
</svg>
