<svg width="94" height="94" viewBox="0 0 94 94" fill="none" xmlns="http://www.w3.org/2000/svg">
<path d="M68.6749 31.0805L46.5104 12.729L16.7888 38.0463L17.3117 81.2707L77.2112 81.022L77.0076 40.1085L43.0775 40.835C42.4782 40.9251 41.8829 41.0152 41.0193 41.5341C40.1576 42.0511 39.0277 42.997 37.9682 44.2229C36.9087 45.4488 35.9139 46.9568 35.3264 48.7193C34.7317 50.523 34.5615 52.4397 34.829 54.3201C35.0948 56.0898 35.8223 57.7581 36.9381 59.1572C38.0553 60.5381 39.4393 61.6797 41.0075 62.5138C42.5154 63.3225 44.0645 63.7788 45.8446 63.8317C47.6228 63.8846 49.632 63.538 51.2202 62.833C52.8084 62.128 53.9756 61.0724 55.0096 59.8896C56.0436 58.7048 56.9444 57.3947 57.4849 56.0708C58.0274 54.747 58.2095 53.4075 58.2311 51.9897C58.2526 50.5718 58.1136 49.0718 57.9765 47.5756" stroke="#D20000" stroke-width="2" stroke-linecap="round" stroke-linejoin="round"/>
</svg>
