<svg width="93" height="93" viewBox="0 0 93 93" fill="none" xmlns="http://www.w3.org/2000/svg">
<path d="M90.0935 74.1094H87.1873C86.0311 74.1094 84.9223 73.6501 84.1047 72.8325C83.2872 72.015 82.8279 70.9062 82.8279 69.75V58.125C82.8279 56.9688 83.2872 55.86 84.1047 55.0425C84.9223 54.2249 86.0311 53.7656 87.1873 53.7656H90.0935C90.4789 53.7656 90.8485 53.6125 91.121 53.34C91.3936 53.0675 91.5467 52.6979 91.5467 52.3125C91.5467 51.9271 91.3936 51.5575 91.121 51.285C90.8485 51.0125 90.4789 50.8594 90.0935 50.8594H87.1873C85.2603 50.8594 83.4123 51.6249 82.0497 52.9874C80.6871 54.35 79.9217 56.198 79.9217 58.125V62.4844H71.1194C70.7762 59.4584 69.3894 56.6465 67.1976 54.5322C65.0057 52.4179 62.1457 51.1333 59.1093 50.8993L45.6679 18.6654C45.3375 17.8734 44.7807 17.1965 44.0672 16.7195C43.3538 16.2426 42.5154 15.9869 41.6572 15.9844H8.71853C7.56236 15.9844 6.45353 16.4437 5.63599 17.2612C4.81845 18.0787 4.35916 19.1876 4.35916 20.3438V55.731C2.8114 57.6515 1.83829 59.9705 1.55217 62.4204C1.26604 64.8703 1.67856 67.3512 2.74211 69.5766C3.80565 71.8021 5.47687 73.6815 7.56284 74.9977C9.64881 76.314 12.0645 77.0136 14.531 77.0156H58.1248C61.3413 77.015 64.4447 75.8291 66.8419 73.6845C69.2391 71.5399 70.762 68.5872 71.1194 65.3906H79.9217V69.75C79.9217 71.677 80.6871 73.525 82.0497 74.8876C83.4123 76.2501 85.2603 77.0156 87.1873 77.0156H90.0935C90.4789 77.0156 90.8485 76.8625 91.121 76.59C91.3936 76.3175 91.5467 75.9479 91.5467 75.5625C91.5467 75.1771 91.3936 74.8075 91.121 74.535C90.8485 74.2625 90.4789 74.1094 90.0935 74.1094ZM42.9978 19.7843L55.9451 50.8594H21.7967V18.8906H41.6572C41.9439 18.8907 42.2242 18.9757 42.4627 19.1347C42.7012 19.2937 42.8874 19.5197 42.9978 19.7843ZM8.71853 18.8906H18.8904V50.8594H14.531C11.9432 50.8555 9.41323 51.6246 7.26541 53.0681V20.3438C7.26541 19.9584 7.41851 19.5887 7.69102 19.3162C7.96353 19.0437 8.33314 18.8906 8.71853 18.8906ZM58.1248 74.1094H14.531C11.8333 74.1094 9.24603 73.0377 7.33843 71.1301C5.43083 69.2225 4.35916 66.6353 4.35916 63.9375C4.35916 61.2397 5.43083 58.6525 7.33843 56.7449C9.24603 54.8373 11.8333 53.7656 14.531 53.7656H58.1248C60.8225 53.7656 63.4098 54.8373 65.3174 56.7449C67.225 58.6525 68.2967 61.2397 68.2967 63.9375C68.2967 66.6353 67.225 69.2225 65.3174 71.1301C63.4098 73.0377 60.8225 74.1094 58.1248 74.1094ZM59.5779 63.9375C59.5779 64.3229 59.4248 64.6925 59.1523 64.965C58.8798 65.2375 58.5102 65.3906 58.1248 65.3906H14.531C14.1456 65.3906 13.776 65.2375 13.5035 64.965C13.231 64.6925 13.0779 64.3229 13.0779 63.9375C13.0779 63.5521 13.231 63.1825 13.5035 62.91C13.776 62.6375 14.1456 62.4844 14.531 62.4844H58.1248C58.5102 62.4844 58.8798 62.6375 59.1523 62.91C59.4248 63.1825 59.5779 63.5521 59.5779 63.9375Z" fill="#D20000"/>
</svg>
