<svg width="140" height="143" viewBox="0 0 140 143" fill="none" xmlns="http://www.w3.org/2000/svg">
<g clip-path="url(#clip0_69_80)">
<path d="M42 110.4C21.9333 110.4 5.6 94.0667 5.6 74C5.6 53.9333 21.9333 37.6 42 37.6C62.0667 37.6 78.4 53.9333 78.4 74C78.4 94.0667 62.0667 110.4 42 110.4ZM126 127.2C126 133.378 120.978 138.4 114.8 138.4C111.83 138.4 108.981 137.22 106.88 135.12C104.78 133.019 103.6 130.17 103.6 127.2C103.6 121.023 108.623 116 114.8 116C120.978 116 126 121.023 126 127.2ZM114.8 9.6C120.978 9.6 126 14.6225 126 20.8C126 26.9775 120.978 32 114.8 32C111.83 32 108.981 30.82 106.88 28.7196C104.78 26.6192 103.6 23.7704 103.6 20.8C103.6 14.6225 108.623 9.6 114.8 9.6ZM123.2 62.8C129.378 62.8 134.4 67.8225 134.4 74C134.4 80.1775 129.378 85.2 123.2 85.2C120.23 85.2 117.381 84.02 115.28 81.9196C113.18 79.8192 112 76.9704 112 74C112 67.8225 117.023 62.8 123.2 62.8ZM83.86 76.8H106.651C107.312 80.712 109.336 84.2637 112.365 86.8261C115.394 89.3885 119.233 90.7963 123.2 90.8C127.654 90.7954 131.925 89.0239 135.074 85.8743C138.224 82.7247 139.995 78.4542 140 74C139.995 69.5458 138.224 65.2753 135.074 62.1257C131.925 58.9761 127.654 57.2046 123.2 57.2C119.233 57.2037 115.394 58.6115 112.365 61.1739C109.336 63.7363 107.312 67.288 106.651 71.2H83.86C83.5254 66.0128 82.2174 60.9349 80.0042 56.2317L104.854 34.3042C107.729 36.4423 111.217 37.598 114.8 37.6C119.254 37.5954 123.525 35.8239 126.674 32.6743C129.824 29.5247 131.595 25.2542 131.6 20.8C131.595 16.3458 129.824 12.0753 126.674 8.92572C123.525 5.77612 119.254 4.00463 114.8 4C110.346 4.00463 106.075 5.77612 102.926 8.92572C99.7761 12.0753 98.0046 16.3458 98 20.8C98 24.3175 99.0908 27.5783 100.94 30.2792L77.2333 51.2033C73.4292 45.3169 68.2124 40.476 62.0583 37.1218C55.9043 33.7677 49.0087 32.0069 42 32C18.8417 32 0 50.8417 0 74C0 97.1583 18.8417 116 42 116C49.0077 115.992 55.9021 114.231 62.0551 110.877C68.208 107.523 73.4239 102.682 77.2275 96.7967L100.94 117.721C99.0211 120.509 97.9957 123.815 98 127.2C98.0046 131.654 99.7761 135.925 102.926 139.074C106.075 142.224 110.346 143.995 114.8 144C119.254 143.995 123.525 142.224 126.674 139.074C129.824 135.925 131.595 131.654 131.6 127.2C131.595 122.746 129.824 118.475 126.674 115.326C123.525 112.176 119.254 110.405 114.8 110.4C111.215 110.401 107.725 111.556 104.848 113.696L79.9983 91.7683C82.2135 87.0655 83.5236 81.9876 83.86 76.8Z" fill="black"/>
</g>
<defs>
<clipPath id="clip0_69_80">
<rect width="140" height="142.598" fill="white" transform="translate(0 0.140137)"/>
</clipPath>
</defs>
</svg>
