<svg width="94" height="73" viewBox="0 0 94 73" fill="none" xmlns="http://www.w3.org/2000/svg">
<g clip-path="url(#clip0_78_107)">
<path d="M21.0766 72.8336C21.0972 72.8473 21.1245 72.8405 21.1451 72.8542C21.3063 72.9448 21.4871 72.9949 21.672 73.0001C21.7738 73 21.8751 72.9861 21.9732 72.9591L46.7658 66.1929L71.5584 72.9591C71.6565 72.9861 71.7578 73 71.8595 73.0001C72.0438 72.9939 72.2239 72.943 72.3842 72.8519C72.407 72.8405 72.4321 72.845 72.4527 72.8313L92.9839 60.2845C93.1963 60.1545 93.3603 59.9586 93.4509 59.7267C93.5415 59.4948 93.5538 59.2396 93.4858 59.0001L82.116 19.0782C82.0691 18.9122 81.9852 18.759 81.8705 18.6302C81.7558 18.5013 81.6134 18.4001 81.454 18.3342C81.2946 18.2683 81.1223 18.2395 80.9501 18.2498C80.7779 18.2601 80.6103 18.3094 80.4598 18.3939L69.1403 24.7449C68.8924 24.9014 68.7141 25.1472 68.6423 25.4314C68.5705 25.7156 68.6107 26.0166 68.7545 26.2721C68.8984 26.5275 69.1349 26.7179 69.4151 26.8039C69.6954 26.8899 69.998 26.8649 70.2604 26.7341L80.3184 21.088L91.0563 58.788L72.772 69.9638L68.4285 35.2181C68.391 34.9177 68.2357 34.6445 67.9968 34.4586C67.7578 34.2727 67.4549 34.1894 67.1545 34.2269C66.8541 34.2644 66.5809 34.4197 66.395 34.6586C66.2091 34.8976 66.1257 35.2006 66.1633 35.501L70.5136 70.3106L47.9064 64.1398V57.912C47.9064 57.6094 47.7862 57.3193 47.5723 57.1054C47.3584 56.8915 47.0683 56.7713 46.7658 56.7713C46.4633 56.7713 46.1731 56.8915 45.9592 57.1054C45.7453 57.3193 45.6252 57.6094 45.6252 57.912V64.1398L23.0157 70.3106L27.366 35.501C27.3846 35.3522 27.3737 35.2013 27.3339 35.0568C27.2942 34.9122 27.2263 34.777 27.1343 34.6586C27.0423 34.5403 26.9278 34.4413 26.7975 34.3672C26.6672 34.2931 26.5236 34.2455 26.3748 34.2269C26.2261 34.2083 26.0752 34.2192 25.9306 34.259C25.7861 34.2987 25.6508 34.3666 25.5325 34.4586C25.4142 34.5507 25.3152 34.6651 25.2411 34.7954C25.167 34.9257 25.1193 35.0693 25.1008 35.2181L20.7595 69.9638L2.47532 58.7902L13.2132 21.0926L23.2712 26.7387C23.5336 26.8695 23.8362 26.8945 24.1164 26.8085C24.3967 26.7225 24.6332 26.5321 24.777 26.2766C24.9209 26.0212 24.9611 25.7202 24.8893 25.436C24.8175 25.1517 24.6392 24.9059 24.3913 24.7494L13.0694 18.3962C12.9195 18.3103 12.7518 18.2599 12.5794 18.2489C12.4069 18.2379 12.2343 18.2665 12.0746 18.3326C11.9149 18.3986 11.7725 18.5004 11.6582 18.6301C11.544 18.7597 11.461 18.9138 11.4155 19.0805L0.0457868 59.0024C-0.0221972 59.2419 -0.00994515 59.4971 0.0806731 59.729C0.171291 59.9609 0.335298 60.1568 0.547662 60.2867L21.0766 72.8336Z" fill="#D20000"/>
<path d="M45.9923 53.3083C46.2017 53.5016 46.4759 53.6095 46.7609 53.6107C47.0459 53.612 47.321 53.5065 47.5321 53.3151C48.2918 52.6239 66.1562 36.2308 66.1562 19.3906C66.1562 8.51591 57.6403 0 46.7656 0C35.8909 0 27.375 8.51591 27.375 19.3906C27.375 35.9388 45.2326 52.6056 45.9923 53.3083ZM46.7656 2.28125C56.518 2.28125 63.875 9.636 63.875 19.3906C63.875 33.2994 50.2035 47.5344 46.7725 50.8878C43.3483 47.4956 29.6562 33.0736 29.6562 19.3906C29.6562 9.636 37.0133 2.28125 46.7656 2.28125Z" fill="#D20000"/>
<path d="M57.0312 19.3906C57.0312 13.7308 52.4254 9.125 46.7656 9.125C41.1058 9.125 36.5 13.7308 36.5 19.3906C36.5 25.0504 41.1058 29.6562 46.7656 29.6562C52.4254 29.6562 57.0312 25.0504 57.0312 19.3906ZM46.7656 27.375C42.3628 27.375 38.7812 23.7934 38.7812 19.3906C38.7812 14.9878 42.3628 11.4062 46.7656 11.4062C51.1684 11.4062 54.75 14.9878 54.75 19.3906C54.75 23.7934 51.1684 27.375 46.7656 27.375Z" fill="#D20000"/>
</g>
<defs>
<clipPath id="clip0_78_107">
<rect width="93.5312" height="73" fill="white"/>
</clipPath>
</defs>
</svg>
