<svg width="93" height="93" viewBox="0 0 93 93" fill="none" xmlns="http://www.w3.org/2000/svg">
<path d="M85.25 85.25H7.75M7.75 42.625L23.4941 30.0312M85.25 42.625L53.7617 17.4375C51.7005 15.7887 49.1396 14.8904 46.5 14.8904C43.8604 14.8904 41.2995 15.7887 39.2383 17.4375L36.208 19.8594M60.0625 21.3125V13.5625C60.0625 13.0486 60.2666 12.5558 60.63 12.1925C60.9933 11.8291 61.4861 11.625 62 11.625H71.6875C72.2014 11.625 72.6942 11.8291 73.0575 12.1925C73.4209 12.5558 73.625 13.0486 73.625 13.5625V32.9375M15.5 85.25V36.8125M77.5 36.8125V52.3125M77.5 85.25V67.8125" stroke="#D20000" stroke-width="1.5" stroke-linecap="round"/>
<path d="M58.125 85.25V65.875C58.125 60.3957 58.125 57.6561 56.42 55.955C54.7228 54.25 51.9831 54.25 46.5 54.25C41.0169 54.25 38.2811 54.25 36.58 55.955M34.875 85.25V65.875" stroke="#D20000" stroke-width="1.5" stroke-linecap="round" stroke-linejoin="round"/>
<path d="M54.25 36.8125C54.25 38.8679 53.4335 40.8392 51.9801 42.2926C50.5267 43.746 48.5554 44.5625 46.5 44.5625C44.4446 44.5625 42.4733 43.746 41.0199 42.2926C39.5665 40.8392 38.75 38.8679 38.75 36.8125C38.75 34.7571 39.5665 32.7858 41.0199 31.3324C42.4733 29.879 44.4446 29.0625 46.5 29.0625C48.5554 29.0625 50.5267 29.879 51.9801 31.3324C53.4335 32.7858 54.25 34.7571 54.25 36.8125Z" stroke="#D20000" stroke-width="1.5"/>
</svg>
