<svg width="93" height="93" viewBox="0 0 93 93" fill="none" xmlns="http://www.w3.org/2000/svg">
<path fill-rule="evenodd" clip-rule="evenodd" d="M46.4998 11.625C47.0136 11.625 47.5064 11.8291 47.8698 12.1925C48.2331 12.5558 48.4373 13.0486 48.4373 13.5625V13.6942C53.8584 14.26 57.995 16.5908 60.6881 19.5571C62.5403 21.5973 63.7668 24.0289 64.1523 26.4004L64.3616 26.5612C66.5393 28.2487 68.1378 30.2948 67.758 32.6411C67.3918 34.9079 65.3439 36.2874 63.4374 37.1302C62.9555 37.3436 62.4641 37.5349 61.9649 37.7037C61.9882 38.0486 61.9998 38.3974 61.9998 38.75C61.9988 40.829 61.5797 42.8865 60.7672 44.8001C59.9548 46.7137 58.7657 48.4444 57.2707 49.889C55.7758 51.3337 54.0054 52.4629 52.0651 53.2093C50.1248 53.9558 48.0541 54.3043 45.9764 54.2341C43.8986 54.1639 41.8562 53.6764 39.9707 52.8007C38.0852 51.925 36.3951 50.6789 35.001 49.1366C33.607 47.5943 32.5374 45.7874 31.856 43.8232C31.1746 41.8591 30.8953 39.778 31.0347 37.7037C30.5354 37.5349 30.0441 37.3436 29.5622 37.1302C27.6557 36.2874 25.6077 34.9079 25.2415 32.6411C24.8618 30.2948 26.4602 28.2487 28.638 26.5612L28.884 26.3713C28.9337 26.0628 28.9957 25.7564 29.07 25.4529C29.5809 23.4381 30.5126 21.5542 31.8038 19.9253C34.4001 16.616 38.649 13.9423 44.5623 13.6012V13.5625C44.5623 13.0486 44.7664 12.5558 45.1298 12.1925C45.4931 11.8291 45.9859 11.625 46.4998 11.625ZM61.341 31.8525C61.7374 31.996 62.1699 32.0063 62.5727 31.8819C62.9755 31.7574 63.3267 31.5049 63.573 31.1628C63.9547 31.6956 63.9412 31.9784 63.9334 32.023C63.9082 32.178 63.6118 32.8174 61.87 33.5885C59.8375 34.4875 56.7802 35.1385 53.2733 35.5066C53.19 33.7662 52.44 32.1247 51.1789 30.9224C49.9177 29.7202 48.2422 29.0495 46.4998 29.0495C44.7574 29.0495 43.0819 29.7202 41.8207 30.9224C40.5595 32.1247 39.8096 33.7662 39.7263 35.5066C36.2194 35.1385 33.162 34.4875 31.1296 33.5885C29.3878 32.8174 29.0913 32.178 29.0662 32.023C29.0584 31.9784 29.0448 31.6975 29.4265 31.1628C29.7 31.544 30.1026 31.8131 30.5595 31.9199C31.0164 32.0268 31.4966 31.9643 31.9108 31.7439C32.3251 31.5235 32.6453 31.1603 32.812 30.7216C32.9786 30.283 32.9805 29.7988 32.8172 29.3589C32.5847 28.7312 32.513 27.6908 32.8346 26.3694C33.2152 24.892 33.9032 23.5115 34.8535 22.3181L34.8748 22.2909V26.1562C34.8748 26.6701 35.0789 27.1629 35.4423 27.5263C35.8056 27.8896 36.2984 28.0938 36.8123 28.0938C37.3261 28.0938 37.8189 27.8896 38.1823 27.5263C38.5456 27.1629 38.7498 26.6701 38.7498 26.1562V19.0766C40.3424 18.2338 42.2702 17.6448 44.5623 17.4821V22.2812C44.5623 22.7951 44.7664 23.2879 45.1298 23.6513C45.4931 24.0146 45.9859 24.2188 46.4998 24.2188C47.0136 24.2188 47.5064 24.0146 47.8698 23.6513C48.2331 23.2879 48.4373 22.7951 48.4373 22.2812V17.5944C50.7042 17.8793 52.6378 18.5283 54.2498 19.3963V26.1562C54.2498 26.6701 54.4539 27.1629 54.8173 27.5263C55.1806 27.8896 55.6734 28.0938 56.1873 28.0938C56.7011 28.0938 57.1939 27.8896 57.5573 27.5263C57.9207 27.1629 58.1248 26.6701 58.1248 26.1562V22.5118C60.287 25.0829 60.7443 27.8031 60.1785 29.3725C60.004 29.8555 60.0285 30.3881 60.2464 30.8531C60.4644 31.3182 60.8581 31.6776 61.341 31.8525ZM41.5921 40.5228C39.3499 40.3805 37.1188 40.099 34.9116 39.68C35.144 42.5939 36.4657 45.3132 38.6133 47.2963C40.7608 49.2794 43.5767 50.3806 46.4998 50.3806C49.4229 50.3806 52.2387 49.2794 54.3863 47.2963C56.5339 45.3132 57.8555 42.5939 58.088 39.68C56.0342 40.083 53.7596 40.362 51.4075 40.5228C50.7742 41.1871 50.0128 41.7159 49.1692 42.0772C48.3256 42.4386 47.4175 42.6249 46.4998 42.625C45.5821 42.6249 44.6739 42.4386 43.8303 42.0772C42.9868 41.7159 42.2253 41.1871 41.5921 40.5228ZM49.406 35.8438C49.406 36.6145 49.0998 37.3538 48.5548 37.8988C48.0098 38.4438 47.2706 38.75 46.4998 38.75C45.729 38.75 44.9898 38.4438 44.4447 37.8988C43.8997 37.3538 43.5935 36.6145 43.5935 35.8438C43.5935 35.073 43.8997 34.3337 44.4447 33.7887C44.9898 33.2437 45.729 32.9375 46.4998 32.9375C47.2706 32.9375 48.0098 33.2437 48.5548 33.7887C49.0998 34.3337 49.406 35.073 49.406 35.8438Z" fill="#D20000"/>
<path d="M46.5 75.5625C47.5277 75.5625 48.5133 75.1542 49.24 74.4275C49.9667 73.7008 50.375 72.7152 50.375 71.6875C50.375 70.6598 49.9667 69.6742 49.24 68.9475C48.5133 68.2208 47.5277 67.8125 46.5 67.8125C45.4723 67.8125 44.4867 68.2208 43.76 68.9475C43.0333 69.6742 42.625 70.6598 42.625 71.6875C42.625 72.7152 43.0333 73.7008 43.76 74.4275C44.4867 75.1542 45.4723 75.5625 46.5 75.5625Z" fill="#D20000"/>
<path fill-rule="evenodd" clip-rule="evenodd" d="M37.8471 55.0249L44.5625 60.0624H48.4375L55.1529 55.0249C66.9619 56.9159 81.375 62.1743 81.375 69.7499V81.3749H11.625V69.7499C11.625 62.1743 26.0381 56.9159 37.8471 55.0249ZM49.7298 63.9374L56.1429 59.1266C58.0863 59.4831 60.0644 59.9307 62 60.4557V77.4999H65.875V61.6415C67.2313 62.1065 68.5313 62.6122 69.75 63.1566V77.4999H23.25V63.1566C24.4687 62.6141 25.7688 62.1065 27.125 61.6415V77.4999H31V60.4557C32.9356 59.9307 34.9138 59.4831 36.8571 59.1266L43.2702 63.9374H49.7298ZM76.1534 67.2118C77.2462 68.3433 77.5 69.1783 77.5 69.7499V77.4999H73.625V65.2084C74.6712 65.8788 75.516 66.553 76.1534 67.2137M16.8466 67.2137C17.4859 66.555 18.3307 65.8807 19.375 65.2103V77.4999H15.5V69.7499C15.5 69.1783 15.7519 68.3433 16.8466 67.2118" fill="#D20000"/>
</svg>
