<svg width="93" height="93" viewBox="0 0 93 93" fill="none" xmlns="http://www.w3.org/2000/svg">
<g clip-path="url(#clip0_78_148)">
<path d="M87.1875 30.5156H38.6786L30.363 13.881C30.2422 13.6396 30.0566 13.4366 29.8269 13.2948C29.5971 13.1529 29.3325 13.0779 29.0625 13.0781H17.4375C17.0521 13.0781 16.6825 13.2312 16.41 13.5037C16.1375 13.7762 15.9844 14.1459 15.9844 14.5313V30.5156H8.71875C8.33336 30.5156 7.96375 30.6687 7.69124 30.9412C7.41872 31.2137 7.26562 31.5834 7.26562 31.9688C7.26562 32.3541 7.41872 32.7238 7.69124 32.9963C7.96375 33.2688 8.33336 33.4219 8.71875 33.4219H15.9844V77.0156H8.71875C8.33336 77.0156 7.96375 77.1687 7.69124 77.4412C7.41872 77.7137 7.26562 78.0834 7.26562 78.4688C7.26562 78.8541 7.41872 79.2238 7.69124 79.4963C7.96375 79.7688 8.33336 79.9219 8.71875 79.9219H46.5C46.8854 79.9219 47.255 79.7688 47.5275 79.4963C47.8 79.2238 47.9531 78.8541 47.9531 78.4688C47.9531 78.0834 47.8 77.7137 47.5275 77.4412C47.255 77.1687 46.8854 77.0156 46.5 77.0156H39.2344V33.4219H77.0156V66.8438C77.0156 67.2291 76.8625 67.5988 76.59 67.8713C76.3175 68.1438 75.9479 68.2969 75.5625 68.2969H69.75C69.3646 68.2969 68.995 68.1438 68.7225 67.8713C68.45 67.5988 68.2969 67.2291 68.2969 66.8438V63.9375C68.2969 63.5521 68.1438 63.1825 67.8713 62.91C67.5988 62.6375 67.2291 62.4844 66.8438 62.4844C66.4584 62.4844 66.0887 62.6375 65.8162 62.91C65.5437 63.1825 65.3906 63.5521 65.3906 63.9375V66.8438C65.3906 67.9999 65.8499 69.1087 66.6675 69.9263C67.485 70.7438 68.5938 71.2031 69.75 71.2031H75.5625C76.7187 71.2031 77.8275 70.7438 78.645 69.9263C79.4626 69.1087 79.9219 67.9999 79.9219 66.8438V33.4219H87.1875C87.5729 33.4219 87.9425 33.2688 88.215 32.9963C88.4875 32.7238 88.6406 32.3541 88.6406 31.9688C88.6406 31.5834 88.4875 31.2137 88.215 30.9412C87.9425 30.6687 87.5729 30.5156 87.1875 30.5156ZM18.8906 15.9844H28.1652L35.4308 30.5156H18.8906V15.9844ZM18.8906 77.0156V56.6719H36.3281V77.0156H18.8906ZM36.3281 53.7656H18.8906V33.4219H36.3281V53.7656Z" fill="#D20000"/>
</g>
<defs>
<clipPath id="clip0_78_148">
<rect width="93" height="93" fill="white"/>
</clipPath>
</defs>
</svg>
