<svg width="94" height="94" viewBox="0 0 94 94" fill="none" xmlns="http://www.w3.org/2000/svg">
<path d="M67.574 78.008C74.8363 73.1969 80.1803 65.9901 82.6747 57.6435C85.1691 49.2969 84.6559 40.3396 81.2244 32.3325C77.793 24.3255 71.6608 17.7762 63.8966 13.8261C56.1323 9.87588 47.2281 8.77519 38.7356 10.7158M67.578 66.5831V78.0041L80.2915 78.008M26.3276 16.0581C19.0863 20.8858 13.7664 28.0992 11.2933 36.4434C8.8201 44.7877 9.35018 53.7349 12.7913 61.7288C16.2324 69.7227 22.3668 76.2574 30.1275 80.1963C37.8882 84.1353 46.7841 85.2291 55.2679 83.2877M26.3276 16.0581V27.4165M26.3276 16.0581H13.7081" stroke="#D20000" stroke-width="1.5" stroke-linecap="round" stroke-linejoin="round"/>
<path d="M48.9583 27.4165L35.25 46.9998H58.75L45.0417 66.5832" stroke="#D20000" stroke-width="1.5" stroke-linecap="round" stroke-linejoin="round"/>
</svg>
