<svg width="98" height="98" viewBox="0 0 98 98" fill="none" xmlns="http://www.w3.org/2000/svg">
<path d="M22.2764 24.0432L34.4271 35.3784M62.7786 61.8272L74.9292 73.1624M73.1624 22.2764L61.8272 34.427M35.3784 62.7785L24.0432 74.9292M43.6013 17.4242C43.6373 18.4624 44.0843 19.4437 44.8438 20.1523C45.6034 20.8608 46.6133 21.2387 47.6515 21.2026C48.6896 21.1666 49.6709 20.7196 50.3795 19.9601C51.0881 19.2005 51.4659 18.1906 51.4299 17.1524C51.3938 16.1143 50.9469 15.133 50.1873 14.4244C49.4277 13.7158 48.4178 13.338 47.3797 13.374C46.3415 13.4101 45.3602 13.857 44.6516 14.6166C43.943 15.3762 43.5652 16.3861 43.6013 17.4242ZM13.374 49.8259C13.4101 50.8641 13.857 51.8454 14.6166 52.554C15.3762 53.2626 16.3861 53.6404 17.4242 53.6043C18.4624 53.5683 19.4437 53.1213 20.1523 52.3618C20.8609 51.6022 21.2387 50.5923 21.2026 49.5541C21.1666 48.516 20.7196 47.5347 19.9601 46.8261C19.2005 46.1175 18.1906 45.7397 17.1524 45.7757C16.1143 45.8118 15.133 46.2587 14.4244 47.0183C13.7158 47.7779 13.338 48.7878 13.374 49.8259ZM76.003 47.6514C76.039 48.6896 76.486 49.6709 77.2455 50.3795C78.0051 51.0881 79.015 51.4659 80.0532 51.4299C81.0913 51.3938 82.0726 50.9468 82.7812 50.1873C83.4898 49.4277 83.8676 48.4178 83.8316 47.3796C83.7955 46.3415 83.3486 45.3602 82.589 44.6516C81.8294 43.943 80.8195 43.5652 79.7814 43.6012C78.7432 43.6373 77.7619 44.0842 77.0533 44.8438C76.3447 45.6034 75.9669 46.6133 76.003 47.6514ZM45.7757 80.0532C45.8118 81.0913 46.2588 82.0726 47.0183 82.7812C47.7779 83.4898 48.7878 83.8676 49.826 83.8316C50.8641 83.7955 51.8454 83.3486 52.554 82.589C53.2626 81.8294 53.6404 80.8195 53.6044 79.7813C53.5683 78.7432 53.1213 77.7619 52.3618 77.0533C51.6022 76.3447 50.5923 75.9669 49.5541 76.0029C48.516 76.039 47.5347 76.486 46.8261 77.2455C46.1175 78.0051 45.7397 79.015 45.7757 80.0532Z" stroke="#D20000" stroke-width="2" stroke-linecap="round" stroke-linejoin="round"/>
</svg>
